  0
SECTION
  2
HEADER
  9
$ACADVER
  1
AC1015
  9
$ACADMAINTVER
 70
     6
  9
$DWGCODEPAGE
  3
DOS932
  9
$INSBASE
 10
0.0
 20
0.0
 30
0.0
  9
$EXTMIN
 10
4185.52512873738
 20
-3089.981184340672
 30
0.0
  9
$EXTMAX
 10
4405.045494034832
 20
-2785.35895701913
 30
0.0
  9
$LIMMIN
 10
0.0
 20
0.0
  9
$LIMMAX
 10
12.0
 20
9.0
  9
$ORTHOMODE
 70
     0
  9
$REGENMODE
 70
     1
  9
$FILLMODE
 70
     1
  9
$QTEXTMODE
 70
     0
  9
$MIRRTEXT
 70
     1
  9
$LTSCALE
 40
1.0
  9
$ATTMODE
 70
     1
  9
$TEXTSIZE
 40
0.2
  9
$TRACEWID
 40
0.05
  9
$TEXTSTYLE
  7
Standard
  9
$CLAYER
  8
0
  9
$CELTYPE
  6
ByLayer
  9
$CECOLOR
 62
   256
  9
$CELTSCALE
 40
1.0
  9
$DISPSILH
 70
     0
  9
$DIMSCALE
 40
1.0
  9
$DIMASZ
 40
0.18
  9
$DIMEXO
 40
0.0625
  9
$DIMDLI
 40
0.38
  9
$DIMRND
 40
0.0
  9
$DIMDLE
 40
0.0
  9
$DIMEXE
 40
0.18
  9
$DIMTP
 40
0.0
  9
$DIMTM
 40
0.0
  9
$DIMTXT
 40
0.18
  9
$DIMCEN
 40
0.09
  9
$DIMTSZ
 40
0.0
  9
$DIMTOL
 70
     0
  9
$DIMLIM
 70
     0
  9
$DIMTIH
 70
     1
  9
$DIMTOH
 70
     1
  9
$DIMSE1
 70
     0
  9
$DIMSE2
 70
     0
  9
$DIMTAD
 70
     0
  9
$DIMZIN
 70
     0
  9
$DIMBLK
  1

  9
$DIMASO
 70
     1
  9
$DIMSHO
 70
     1
  9
$DIMPOST
  1

  9
$DIMAPOST
  1

  9
$DIMALT
 70
     0
  9
$DIMALTD
 70
     2
  9
$DIMALTF
 40
25.4
  9
$DIMLFAC
 40
1.0
  9
$DIMTOFL
 70
     0
  9
$DIMTVP
 40
0.0
  9
$DIMTIX
 70
     0
  9
$DIMSOXD
 70
     0
  9
$DIMSAH
 70
     0
  9
$DIMBLK1
  1

  9
$DIMBLK2
  1

  9
$DIMSTYLE
  2
Standard
  9
$DIMCLRD
 70
     0
  9
$DIMCLRE
 70
     0
  9
$DIMCLRT
 70
     0
  9
$DIMTFAC
 40
1.0
  9
$DIMGAP
 40
0.09
  9
$DIMJUST
 70
     0
  9
$DIMSD1
 70
     0
  9
$DIMSD2
 70
     0
  9
$DIMTOLJ
 70
     1
  9
$DIMTZIN
 70
     0
  9
$DIMALTZ
 70
     0
  9
$DIMALTTZ
 70
     0
  9
$DIMUPT
 70
     0
  9
$DIMDEC
 70
     4
  9
$DIMTDEC
 70
     4
  9
$DIMALTU
 70
     2
  9
$DIMALTTD
 70
     2
  9
$DIMTXSTY
  7
Standard
  9
$DIMAUNIT
 70
     0
  9
$DIMADEC
 70
     0
  9
$DIMALTRND
 40
0.0
  9
$DIMAZIN
 70
     0
  9
$DIMDSEP
 70
    46
  9
$DIMATFIT
 70
     3
  9
$DIMFRAC
 70
     0
  9
$DIMLDRBLK
  1

  9
$DIMLUNIT
 70
     2
  9
$DIMLWD
 70
    -2
  9
$DIMLWE
 70
    -2
  9
$DIMTMOVE
 70
     0
  9
$LUNITS
 70
     2
  9
$LUPREC
 70
     4
  9
$SKETCHINC
 40
0.1
  9
$FILLETRAD
 40
0.5
  9
$AUNITS
 70
     0
  9
$AUPREC
 70
     0
  9
$MENU
  1
.
  9
$ELEVATION
 40
0.0
  9
$PELEVATION
 40
0.0
  9
$THICKNESS
 40
0.0
  9
$LIMCHECK
 70
     0
  9
$CHAMFERA
 40
0.5
  9
$CHAMFERB
 40
0.5
  9
$CHAMFERC
 40
1.0
  9
$CHAMFERD
 40
0.0
  9
$SKPOLY
 70
     0
  9
$TDCREATE
 40
2455897.544781539
  9
$TDUCREATE
 40
2455897.169781539
  9
$TDUPDATE
 40
2455897.544781551
  9
$TDUUPDATE
 40
2455897.169781551
  9
$TDINDWG
 40
0.0000000116
  9
$TDUSRTIMER
 40
0.0000000116
  9
$USRTIMER
 70
     1
  9
$ANGBASE
 50
0.0
  9
$ANGDIR
 70
     0
  9
$PDMODE
 70
     0
  9
$PDSIZE
 40
0.0
  9
$PLINEWID
 40
0.0
  9
$SPLFRAME
 70
     0
  9
$SPLINETYPE
 70
     6
  9
$SPLINESEGS
 70
     8
  9
$HANDSEED
  5
1D0
  9
$SURFTAB1
 70
     6
  9
$SURFTAB2
 70
     6
  9
$SURFTYPE
 70
     6
  9
$SURFU
 70
     6
  9
$SURFV
 70
     6
  9
$UCSBASE
  2

  9
$UCSNAME
  2

  9
$UCSORG
 10
0.0
 20
0.0
 30
0.0
  9
$UCSXDIR
 10
1.0
 20
0.0
 30
0.0
  9
$UCSYDIR
 10
0.0
 20
1.0
 30
0.0
  9
$UCSORTHOREF
  2

  9
$UCSORTHOVIEW
 70
     0
  9
$UCSORGTOP
 10
0.0
 20
0.0
 30
0.0
  9
$UCSORGBOTTOM
 10
0.0
 20
0.0
 30
0.0
  9
$UCSORGLEFT
 10
0.0
 20
0.0
 30
0.0
  9
$UCSORGRIGHT
 10
0.0
 20
0.0
 30
0.0
  9
$UCSORGFRONT
 10
0.0
 20
0.0
 30
0.0
  9
$UCSORGBACK
 10
0.0
 20
0.0
 30
0.0
  9
$PUCSBASE
  2

  9
$PUCSNAME
  2

  9
$PUCSORG
 10
0.0
 20
0.0
 30
0.0
  9
$PUCSXDIR
 10
1.0
 20
0.0
 30
0.0
  9
$PUCSYDIR
 10
0.0
 20
1.0
 30
0.0
  9
$PUCSORTHOREF
  2

  9
$PUCSORTHOVIEW
 70
     0
  9
$PUCSORGTOP
 10
0.0
 20
0.0
 30
0.0
  9
$PUCSORGBOTTOM
 10
0.0
 20
0.0
 30
0.0
  9
$PUCSORGLEFT
 10
0.0
 20
0.0
 30
0.0
  9
$PUCSORGRIGHT
 10
0.0
 20
0.0
 30
0.0
  9
$PUCSORGFRONT
 10
0.0
 20
0.0
 30
0.0
  9
$PUCSORGBACK
 10
0.0
 20
0.0
 30
0.0
  9
$USERI1
 70
     0
  9
$USERI2
 70
     0
  9
$USERI3
 70
     0
  9
$USERI4
 70
     0
  9
$USERI5
 70
     0
  9
$USERR1
 40
13.2
  9
$USERR2
 40
0.0
  9
$USERR3
 40
0.0
  9
$USERR4
 40
0.0
  9
$USERR5
 40
0.0
  9
$WORLDVIEW
 70
     1
  9
$SHADEDGE
 70
     3
  9
$SHADEDIF
 70
    70
  9
$TILEMODE
 70
     1
  9
$MAXACTVP
 70
    64
  9
$PINSBASE
 10
0.0
 20
0.0
 30
0.0
  9
$PLIMCHECK
 70
     0
  9
$PEXTMIN
 10
1.00000000000000E+20
 20
1.00000000000000E+20
 30
1.00000000000000E+20
  9
$PEXTMAX
 10
-1.00000000000000E+20
 20
-1.00000000000000E+20
 30
-1.00000000000000E+20
  9
$PLIMMIN
 10
0.0
 20
0.0
  9
$PLIMMAX
 10
12.0
 20
9.0
  9
$UNITMODE
 70
     0
  9
$VISRETAIN
 70
     1
  9
$PLINEGEN
 70
     0
  9
$PSLTSCALE
 70
     1
  9
$TREEDEPTH
 70
  3020
  9
$CMLSTYLE
  2
Standard
  9
$CMLJUST
 70
     0
  9
$CMLSCALE
 40
1.0
  9
$PROXYGRAPHICS
 70
     1
  9
$MEASUREMENT
 70
     1
  9
$CELWEIGHT
370
    -1
  9
$ENDCAPS
280
     0
  9
$JOINSTYLE
280
     0
  9
$LWDISPLAY
290
     0
  9
$INSUNITS
 70
     1
  9
$HYPERLINKBASE
  1

  9
$STYLESHEET
  1

  9
$XEDIT
290
     1
  9
$CEPSNTYPE
380
     0
  9
$PSTYLEMODE
290
     1
  9
$FINGERPRINTGUID
  2
{4E014764-A9DA-4FAB-97C8-0DFA37959230}
  9
$VERSIONGUID
  2
{FAEB1C32-E019-11D5-929B-00C0DF256EC4}
  9
$EXTNAMES
290
     1
  9
$PSVPSCALE
 40
0.0
  9
$OLESTARTUP
290
     0
  0
ENDSEC
  0
SECTION
  2
CLASSES
  0
CLASS
  1
ACDBDICTIONARYWDFLT
  2
AcDbDictionaryWithDefault
  3
ObjectDBX Classes
 90
        0
280
     0
281
     0
  0
CLASS
  1

  2
exOdDbCircle
  3

 90
        0
280
     0
281
     1
  0
CLASS
  1

  2
exOdDbPolyline
  3

 90
        0
280
     0
281
     1
  0
CLASS
  1
ACDBPLACEHOLDER
  2
AcDbPlaceHolder
  3
ObjectDBX Classes
 90
        0
280
     0
281
     0
  0
CLASS
  1
LAYOUT
  2
AcDbLayout
  3
ObjectDBX Classes
 90
        0
280
     0
281
     0
  0
ENDSEC
  0
SECTION
  2
TABLES
  0
TABLE
  2
VPORT
  5
8
330
0
100
AcDbSymbolTable
 70
     1
  0
VPORT
  5
29
330
8
100
AcDbSymbolTableRecord
100
AcDbViewportTableRecord
  2
*Active
 70
     0
 10
0.0
 20
0.0
 11
1.0
 21
1.0
 12
4295.285311386106
 22
-2937.670070679901
 13
0.0
 23
0.0
 14
0.5
 24
0.5
 15
0.5
 25
0.5
 16
0.0
 26
0.0
 36
1.0
 17
0.0
 27
0.0
 37
0.0
 40
335.0844500536964
 41
1.60267857142857
 42
50.0
 43
0.0
 44
0.0
 50
0.0
 51
0.0
 71
     0
 72
   100
 73
     1
 74
     3
 75
     0
 76
     0
 77
     0
 78
     0
281
     0
 65
     1
110
0.0
120
0.0
130
0.0
111
1.0
121
0.0
131
0.0
112
0.0
122
1.0
132
0.0
 79
     0
146
0.0
  0
ENDTAB
  0
TABLE
  2
LTYPE
  5
5
330
0
100
AcDbSymbolTable
 70
     8
  0
LTYPE
  5
14
330
5
100
AcDbSymbolTableRecord
100
AcDbLinetypeTableRecord
  2
ByBlock
 70
     0
  3

 72
    65
 73
     0
 40
0.0
  0
LTYPE
  5
15
330
5
100
AcDbSymbolTableRecord
100
AcDbLinetypeTableRecord
  2
ByLayer
 70
     0
  3

 72
    65
 73
     0
 40
0.0
  0
LTYPE
  5
16
330
5
100
AcDbSymbolTableRecord
100
AcDbLinetypeTableRecord
  2
Continuous
 70
     0
  3
Solid line
 72
    65
 73
     0
 40
0.0
  0
LTYPE
  5
2A
330
5
100
AcDbSymbolTableRecord
100
AcDbLinetypeTableRecord
  2
DASHED
 70
     0
  3
Dashed
 72
    65
 73
     2
 40
15.0
 49
7.0
 74
     0
 49
-8.0
 74
     0
  0
LTYPE
  5
2B
330
5
100
AcDbSymbolTableRecord
100
AcDbLinetypeTableRecord
  2
DOTTED
 70
     0
  3
Dotted
 72
    65
 73
     2
 40
1.0
 49
0.0
 74
     0
 49
-1.0
 74
     0
  0
LTYPE
  5
2C
330
5
100
AcDbSymbolTableRecord
100
AcDbLinetypeTableRecord
  2
DOT_CENTER
 70
     0
  3
Dot_Center
 72
    65
 73
     4
 40
14.0
 49
12.0
 74
     0
 49
-1.0
 74
     0
 49
0.0
 74
     0
 49
-1.0
 74
     0
  0
LTYPE
  5
2D
330
5
100
AcDbSymbolTableRecord
100
AcDbLinetypeTableRecord
  2
LONG_DASHED
 70
     0
  3
Long_Dashed
 72
    65
 73
     2
 40
15.0
 49
10.0
 74
     0
 49
-5.0
 74
     0
  0
LTYPE
  5
2E
330
5
100
AcDbSymbolTableRecord
100
AcDbLinetypeTableRecord
  2
DASH_CENTER
 70
     0
  3
Dash_Center
 72
    65
 73
     4
 40
14.0
 49
11.0
 74
     0
 49
-1.0
 74
     0
 49
1.0
 74
     0
 49
-1.0
 74
     0
  0
LTYPE
  5
2F
330
5
100
AcDbSymbolTableRecord
100
AcDbLinetypeTableRecord
  2
PHANTOM
 70
     0
  3
Phantom
 72
    65
 73
     6
 40
13.0
 49
10.0
 74
     0
 49
-1.0
 74
     0
 49
0.0
 74
     0
 49
-1.0
 74
     0
 49
0.0
 74
     0
 49
-1.0
 74
     0
  0
LTYPE
  5
30
330
5
100
AcDbSymbolTableRecord
100
AcDbLinetypeTableRecord
  2
CENTER_DASH_DASH
 70
     0
  3
Center_Dash_Dash
 72
    65
 73
     6
 40
14.0
 49
9.0
 74
     0
 49
-1.0
 74
     0
 49
1.0
 74
     0
 49
-1.0
 74
     0
 49
1.0
 74
     0
 49
-1.0
 74
     0
  0
ENDTAB
  0
TABLE
  2
LAYER
  5
2
330
0
100
AcDbSymbolTable
 70
     2
  0
LAYER
  5
10
330
2
100
AcDbSymbolTableRecord
100
AcDbLayerTableRecord
  2
0
 70
     0
 62
     7
  6
Continuous
370
    -3
390
F
  0
LAYER
  5
31
330
2
100
AcDbSymbolTableRecord
100
AcDbLayerTableRecord
  2
1
 70
     0
 62
     7
  6
Continuous
370
    -3
390
F
  0
ENDTAB
  0
TABLE
  2
STYLE
  5
3
330
0
100
AcDbSymbolTable
 70
     3
  0
STYLE
  5
11
330
3
100
AcDbSymbolTableRecord
100
AcDbTextStyleTableRecord
  2
Standard
 70
     0
 40
0.0
 41
1.0
 50
0.0
 71
     0
 42
0.2
  3
txt
  4

  0
STYLE
  5
13A
330
3
100
AcDbSymbolTableRecord
100
AcDbTextStyleTableRecord
  2
CONVERTER_1
 70
     0
 40
0.0
 41
0.9
 50
0.0
 71
     0
 42
0.2
  3
txt.shx
  4

  0
STYLE
  5
145
330
3
100
AcDbSymbolTableRecord
100
AcDbTextStyleTableRecord
  2
CONVERTER_2
 70
     0
 40
0.0
 41
1.0
 50
0.0
 71
     0
 42
0.2
  3
txt.shx
  4

  0
ENDTAB
  0
TABLE
  2
VIEW
  5
6
330
0
100
AcDbSymbolTable
 70
     0
  0
ENDTAB
  0
TABLE
  2
UCS
  5
7
330
0
100
AcDbSymbolTable
 70
     0
  0
ENDTAB
  0
TABLE
  2
APPID
  5
9
330
0
100
AcDbSymbolTable
 70
     1
  0
APPID
  5
12
330
9
100
AcDbSymbolTableRecord
100
AcDbRegAppTableRecord
  2
ACAD
 70
     0
  0
ENDTAB
  0
TABLE
  2
DIMSTYLE
  5
A
330
0
100
AcDbSymbolTable
 70
    12
100
AcDbDimStyleTable
  0
DIMSTYLE
105
27
330
A
100
AcDbSymbolTableRecord
100
AcDbDimStyleTableRecord
  2
Standard
 70
     0
340
11
  0
DIMSTYLE
105
14F
102
{ACAD_REACTORS
330
150
102
}
330
A
100
AcDbSymbolTableRecord
100
AcDbDimStyleTableRecord
  2
ME10_DIM_0
 70
     0
  3
(<>)
 41
11.0
 42
5.0
 44
2.5
 73
     0
 74
     0
 77
     1
 78
    12
140
11.0
147
0.625
172
     1
173
     1
176
     2
177
     2
178
     2
271
     3
340
145
343
149
344
149
  0
DIMSTYLE
105
15C
102
{ACAD_REACTORS
330
15D
102
}
330
A
100
AcDbSymbolTableRecord
100
AcDbDimStyleTableRecord
  2
ME10_DIM_1
 70
     0
  3
{\Fgdt;n}<>
 41
11.0
 42
5.0
 44
2.5
 73
     0
 74
     0
 77
     1
 78
    12
140
11.0
147
0.625
172
     1
173
     1
176
     2
177
     2
178
     2
271
     3
340
145
343
149
344
149
  0
DIMSTYLE
105
16A
102
{ACAD_REACTORS
330
16B
102
}
330
A
100
AcDbSymbolTableRecord
100
AcDbDimStyleTableRecord
  2
ME10_DIM_2
 70
     0
 41
11.0
 42
5.0
 44
2.5
 73
     0
 74
     0
 77
     1
 78
    12
140
11.0
147
0.625
172
     1
173
     1
176
     2
177
     2
178
     2
271
     3
340
145
343
149
344
167
  0
DIMSTYLE
105
177
102
{ACAD_REACTORS
330
178
102
}
330
A
100
AcDbSymbolTableRecord
100
AcDbDimStyleTableRecord
  2
ME10_DIM_3
 70
     0
  3
{\Fgdt;n}<>
 41
11.0
 42
5.0
 44
2.5
 73
     0
 74
     0
 77
     1
 78
    12
140
11.0
147
0.625
172
     1
173
     1
176
     2
177
     2
178
     2
271
     3
340
145
343
149
344
149
  0
DIMSTYLE
105
184
102
{ACAD_REACTORS
330
185
102
}
330
A
100
AcDbSymbolTableRecord
100
AcDbDimStyleTableRecord
  2
ME10_DIM_4
 70
     0
 41
11.0
 42
5.0
 44
2.5
 73
     0
 74
     0
 77
     1
 78
    12
140
11.0
147
0.625
172
     1
173
     1
176
     2
177
     2
178
     2
271
     3
340
145
343
149
344
149
  0
DIMSTYLE
105
191
102
{ACAD_REACTORS
330
192
102
}
330
A
100
AcDbSymbolTableRecord
100
AcDbDimStyleTableRecord
  2
ME10_DIM_5
 70
     0
 41
11.0
 42
5.0
 44
2.5
 73
     0
 74
     0
 77
     1
 78
    12
140
11.0
147
0.625
172
     1
173
     1
176
     2
177
     2
178
     2
271
     3
340
145
343
149
344
149
  0
DIMSTYLE
105
19E
102
{ACAD_REACTORS
330
19F
102
}
330
A
100
AcDbSymbolTableRecord
100
AcDbDimStyleTableRecord
  2
ME10_DIM_6
 70
     0
  3
{\Fgdt;n}<>
 41
11.0
 42
5.0
 44
2.5
 73
     0
 74
     0
 77
     1
 78
    12
140
11.0
147
0.625
172
     1
173
     1
176
     2
177
     2
178
     2
271
     3
340
145
343
149
344
149
  0
DIMSTYLE
105
1AA
102
{ACAD_REACTORS
330
1AB
102
}
330
A
100
AcDbSymbolTableRecord
100
AcDbDimStyleTableRecord
  2
ME10_DIM_7
 70
     0
  3
(<>)
 41
11.0
 42
5.0
 44
2.5
 73
     0
 74
     0
 77
     1
 78
    12
140
11.0
147
0.625
172
     1
173
     1
176
     2
177
     2
178
     2
271
     3
340
145
343
167
344
149
  0
DIMSTYLE
105
1B5
102
{ACAD_REACTORS
330
1B6
102
}
330
A
100
AcDbSymbolTableRecord
100
AcDbDimStyleTableRecord
  2
ME10_DIM_8
 70
     0
 41
11.0
 42
5.0
 44
2.5
 73
     0
 74
     0
 77
     1
 78
    12
140
11.0
147
0.625
172
     1
173
     1
176
     2
177
     2
178
     2
271
     3
340
145
343
167
344
149
  0
DIMSTYLE
105
1BF
102
{ACAD_REACTORS
330
1C0
102
}
330
A
100
AcDbSymbolTableRecord
100
AcDbDimStyleTableRecord
  2
ME10_DIM_9
 70
     0
 41
11.0
 42
5.0
 44
2.5
 73
     0
 74
     0
 77
     1
 78
    12
140
11.0
147
0.625
172
     1
173
     1
176
     2
177
     2
178
     2
271
     3
340
145
343
167
344
167
  0
DIMSTYLE
105
1CB
102
{ACAD_REACTORS
330
1CC
102
}
330
A
100
AcDbSymbolTableRecord
100
AcDbDimStyleTableRecord
  2
ME10_DIM_10
 70
     0
 41
11.0
 42
5.0
 44
2.5
 73
     0
 74
     0
 77
     1
 78
    12
140
11.0
147
0.625
172
     1
173
     1
176
     2
177
     2
178
     2
271
     3
340
145
343
149
344
167
  0
ENDTAB
  0
TABLE
  2
BLOCK_RECORD
  5
1
330
0
100
AcDbSymbolTable
 70
    15
  0
BLOCK_RECORD
  5
1F
330
1
100
AcDbSymbolTableRecord
100
AcDbBlockTableRecord
  2
*Model_Space
340
22
  0
BLOCK_RECORD
  5
1B
330
1
100
AcDbSymbolTableRecord
100
AcDbBlockTableRecord
  2
*Paper_Space
340
1E
  0
BLOCK_RECORD
  5
23
330
1
100
AcDbSymbolTableRecord
100
AcDbBlockTableRecord
  2
*Paper_Space0
340
26
  0
BLOCK_RECORD
  5
32
330
1
100
AcDbSymbolTableRecord
100
AcDbBlockTableRecord
  2
TOP__1
340
0
102
{BLKREFS
331
35
102
}
  0
BLOCK_RECORD
  5
13D
330
1
100
AcDbSymbolTableRecord
100
AcDbBlockTableRecord
  2
*D02
340
0
  0
BLOCK_RECORD
  5
149
330
1
100
AcDbSymbolTableRecord
100
AcDbBlockTableRecord
  2
_Open30
340
0
  0
BLOCK_RECORD
  5
151
330
1
100
AcDbSymbolTableRecord
100
AcDbBlockTableRecord
  2
*D14
340
0
  0
BLOCK_RECORD
  5
15E
330
1
100
AcDbSymbolTableRecord
100
AcDbBlockTableRecord
  2
*D25
340
0
  0
BLOCK_RECORD
  5
167
330
1
100
AcDbSymbolTableRecord
100
AcDbBlockTableRecord
  2
_None
340
0
  0
BLOCK_RECORD
  5
16C
330
1
100
AcDbSymbolTableRecord
100
AcDbBlockTableRecord
  2
*D37
340
0
  0
BLOCK_RECORD
  5
179
330
1
100
AcDbSymbolTableRecord
100
AcDbBlockTableRecord
  2
*D48
340
0
  0
BLOCK_RECORD
  5
186
330
1
100
AcDbSymbolTableRecord
100
AcDbBlockTableRecord
  2
*D59
340
0
  0
BLOCK_RECORD
  5
193
330
1
100
AcDbSymbolTableRecord
100
AcDbBlockTableRecord
  2
*D610
340
0
  0
BLOCK_RECORD
  5
1A0
330
1
100
AcDbSymbolTableRecord
100
AcDbBlockTableRecord
  2
*D711
340
0
  0
BLOCK_RECORD
  5
1AC
330
1
100
AcDbSymbolTableRecord
100
AcDbBlockTableRecord
  2
*D812
340
0
  0
BLOCK_RECORD
  5
1B7
330
1
100
AcDbSymbolTableRecord
100
AcDbBlockTableRecord
  2
*D913
340
0
  0
BLOCK_RECORD
  5
1C1
330
1
100
AcDbSymbolTableRecord
100
AcDbBlockTableRecord
  2
*D1014
340
0
  0
ENDTAB
  0
ENDSEC
  0
SECTION
  2
BLOCKS
  0
BLOCK
  5
20
330
1F
100
AcDbEntity
  8
0
100
AcDbBlockBegin
  2
*Model_Space
 70
     0
 71
     0
 10
0.0
 20
0.0
 30
0.0
  3
*Model_Space
  1

  0
ENDBLK
  5
21
330
1F
100
AcDbEntity
  8
0
100
AcDbBlockEnd
  0
BLOCK
  5
1C
330
1B
100
AcDbEntity
 67
     1
  8
0
100
AcDbBlockBegin
  2
*Paper_Space
 70
     0
 71
     0
 10
0.0
 20
0.0
 30
0.0
  3
*Paper_Space
  1

  0
ENDBLK
  5
1D
330
1B
100
AcDbEntity
 67
     1
  8
0
100
AcDbBlockEnd
  0
BLOCK
  5
24
330
23
100
AcDbEntity
  8
0
100
AcDbBlockBegin
  2
*Paper_Space0
 70
     0
 71
     0
 10
0.0
 20
0.0
 30
0.0
  3
*Paper_Space0
  1

  0
ENDBLK
  5
25
330
23
100
AcDbEntity
  8
0
100
AcDbBlockEnd
  0
BLOCK
  5
33
330
32
100
AcDbEntity
  8
0
100
AcDbBlockBegin
  2
TOP__1
 70
     0
 71
     0
 10
0.0
 20
0.0
 30
0.0
  3
TOP__1
  1

  0
POINT
  5
36
330
32
100
AcDbEntity
  8
0
 62
     7
100
AcDbPoint
 10
4241.08668650419
 20
-2862.83377382608
 30
0.0
  0
POINT
  5
37
330
32
100
AcDbEntity
  8
0
 62
     7
100
AcDbPoint
 10
4247.13668650419
 20
-3048.43377382608
 30
0.0
  0
POINT
  5
38
330
32
100
AcDbEntity
  8
0
 62
     7
100
AcDbPoint
 10
4353.43668650419
 20
-3044.93377382608
 30
0.0
  0
POINT
  5
39
330
32
100
AcDbEntity
  8
0
 62
     7
100
AcDbPoint
 10
4339.43668650419
 20
-3044.93377382608
 30
0.0
  0
POINT
  5
3A
330
32
100
AcDbEntity
  8
0
 62
     7
100
AcDbPoint
 10
4241.08668650419
 20
-2862.83377382608
 30
0.0
  0
POINT
  5
3B
330
32
100
AcDbEntity
  8
0
 62
     7
100
AcDbPoint
 10
4236.43668650419
 20
-2989.93377382608
 30
0.0
  0
POINT
  5
3C
330
32
100
AcDbEntity
  8
0
 62
     7
100
AcDbPoint
 10
4274.93668650419
 20
-2892.33377382608
 30
0.0
  0
POINT
  5
3D
330
32
100
AcDbEntity
  8
0
 62
     7
100
AcDbPoint
 10
4237.93668650419
 20
-2892.33377382608
 30
0.0
  0
POINT
  5
3E
330
32
100
AcDbEntity
  8
0
 62
     7
100
AcDbPoint
 10
4346.43668650419
 20
-3047.93377382608
 30
0.0
  0
POINT
  5
3F
330
32
100
AcDbEntity
  8
0
 62
     7
100
AcDbPoint
 10
4256.43668650419
 20
-3052.43377382608
 30
0.0
  0
POINT
  5
40
330
32
100
AcDbEntity
  8
0
 62
     7
100
AcDbPoint
 10
4360.43668650419
 20
-3044.93377382608
 30
0.0
  0
POINT
  5
41
330
32
100
AcDbEntity
  8
0
 62
     7
100
AcDbPoint
 10
4360.43668650419
 20
-2996.93377382608
 30
0.0
  0
POINT
  5
42
330
32
100
AcDbEntity
  8
0
 62
     7
100
AcDbPoint
 10
4281.23668650419
 20
-2952.23377382607
 30
0.0
  0
POINT
  5
43
330
32
100
AcDbEntity
  8
0
 62
     7
100
AcDbPoint
 10
4231.63668650419
 20
-2952.23377382607
 30
0.0
  0
POINT
  5
44
330
32
100
AcDbEntity
  8
0
 62
     7
100
AcDbPoint
 10
4361.43668650419
 20
-2997.93377382608
 30
0.0
  0
POINT
  5
45
330
32
100
AcDbEntity
  8
0
 62
     7
100
AcDbPoint
 10
4380.63668650419
 20
-3020.93377382608
 30
0.0
  0
POINT
  5
46
330
32
100
AcDbEntity
  8
0
 62
     7
100
AcDbPoint
 10
4361.43668650419
 20
-2997.93377382608
 30
0.0
  0
POINT
  5
47
330
32
100
AcDbEntity
  8
0
 62
     7
100
AcDbPoint
 10
4256.43668650419
 20
-2857.83377382608
 30
0.0
  0
POINT
  5
48
330
32
100
AcDbEntity
  8
0
 62
     7
100
AcDbPoint
 10
4237.53668650419
 20
-3020.93377382608
 30
0.0
  0
POINT
  5
49
330
32
100
AcDbEntity
  8
0
 62
     7
100
AcDbPoint
 10
4236.43668650419
 20
-2989.93377382608
 30
0.0
  0
POINT
  5
4A
330
32
100
AcDbEntity
  8
0
 62
     7
100
AcDbPoint
 10
4247.13668650419
 20
-3048.43377382608
 30
0.0
  0
POINT
  5
4B
330
32
100
AcDbEntity
  8
0
 62
     7
100
AcDbPoint
 10
4237.53668650419
 20
-3020.93377382608
 30
0.0
  0
LINE
  5
4C
330
32
100
AcDbEntity
  8
1
  6
DOTTED
 62
     2
100
AcDbLine
 10
4353.43668650419
 20
-2996.93377382608
 30
0.0
 11
4353.43668650419
 21
-3044.93377382608
 31
0.0
  0
LINE
  5
4D
330
32
100
AcDbEntity
  8
1
  6
Continuous
 62
     2
100
AcDbLine
 10
4273.33668650419
 20
-2872.03377382608
 30
0.0
 11
4239.53668650419
 21
-2872.03377382608
 31
0.0
  0
LINE
  5
4E
330
32
100
AcDbEntity
  8
1
  6
Continuous
 62
     2
100
AcDbLine
 10
4239.53668650419
 20
-2868.13377382608
 30
0.0
 11
4273.33668650419
 21
-2868.13377382608
 31
0.0
  0
LINE
  5
4F
330
32
100
AcDbEntity
  8
1
  6
Continuous
 62
     2
100
AcDbLine
 10
4240.11254003991
 20
-2868.13377382608
 30
0.0
 11
4240.11254003991
 21
-2872.03377382608
 31
0.0
  0
LINE
  5
50
330
32
100
AcDbEntity
  8
1
  6
Continuous
 62
     2
100
AcDbLine
 10
4241.80085718024
 20
-2868.13377382608
 30
0.0
 11
4241.80085718024
 21
-2872.03377382608
 31
0.0
  0
LINE
  5
51
330
32
100
AcDbEntity
  8
1
  6
Continuous
 62
     2
100
AcDbLine
 10
4244.48658190214
 20
-2868.13377382608
 30
0.0
 11
4244.48658190214
 21
-2872.03377382608
 31
0.0
  0
LINE
  5
52
330
32
100
AcDbEntity
  8
1
  6
Continuous
 62
     2
100
AcDbLine
 10
4247.98668650419
 20
-2868.13377382608
 30
0.0
 11
4247.98668650419
 21
-2872.03377382608
 31
0.0
  0
LINE
  5
53
330
32
100
AcDbEntity
  8
1
  6
Continuous
 62
     2
100
AcDbLine
 10
4252.06264464196
 20
-2868.13377382608
 30
0.0
 11
4252.06264464196
 21
-2872.03377382608
 31
0.0
  0
LINE
  5
54
330
32
100
AcDbEntity
  8
1
  6
DASH_CENTER
 62
     2
100
AcDbLine
 10
4256.43668650419
 20
-2911.17997685053
 30
0.0
 11
4256.43668650419
 21
-2857.83377382608
 31
0.0
  0
LINE
  5
55
330
32
100
AcDbEntity
  8
1
  6
Continuous
 62
     2
100
AcDbLine
 10
4256.43668650419
 20
-2868.13377382608
 30
0.0
 11
4256.43668650419
 21
-2872.03377382608
 31
0.0
  0
LINE
  5
56
330
32
100
AcDbEntity
  8
1
  6
Continuous
 62
     2
100
AcDbLine
 10
4260.81072836643
 20
-2868.13377382608
 30
0.0
 11
4260.81072836643
 21
-2872.03377382608
 31
0.0
  0
LINE
  5
57
330
32
100
AcDbEntity
  8
1
  6
Continuous
 62
     2
100
AcDbLine
 10
4264.88668650419
 20
-2868.13377382608
 30
0.0
 11
4264.88668650419
 21
-2872.03377382608
 31
0.0
  0
LINE
  5
58
330
32
100
AcDbEntity
  8
1
  6
Continuous
 62
     2
100
AcDbLine
 10
4268.38679110625
 20
-2868.13377382608
 30
0.0
 11
4268.38679110625
 21
-2872.03377382608
 31
0.0
  0
LINE
  5
59
330
32
100
AcDbEntity
  8
1
  6
Continuous
 62
     2
100
AcDbLine
 10
4271.07251582815
 20
-2868.13377382608
 30
0.0
 11
4271.07251582815
 21
-2872.03377382608
 31
0.0
  0
LINE
  5
5A
330
32
100
AcDbEntity
  8
1
  6
Continuous
 62
     2
100
AcDbLine
 10
4272.76083296848
 20
-2868.13377382608
 30
0.0
 11
4272.76083296848
 21
-2872.03377382608
 31
0.0
  0
LINE
  5
5B
330
32
100
AcDbEntity
  8
1
  6
Continuous
 62
     2
100
AcDbLine
 10
4268.73668650419
 20
-3030.73377382607
 30
0.0
 11
4244.13668650419
 21
-3030.73377382607
 31
0.0
  0
LINE
  5
5C
330
32
100
AcDbEntity
  8
1
  6
Continuous
 62
     2
100
AcDbLine
 10
4244.13668650419
 20
-3035.13377382608
 30
0.0
 11
4268.73668650419
 21
-3035.13377382608
 31
0.0
  0
LINE
  5
5D
330
32
100
AcDbEntity
  8
1
  6
Continuous
 62
     2
100
AcDbLine
 10
4244.55579884084
 20
-3030.73377382607
 30
0.0
 11
4244.55579884084
 21
-3035.13377382608
 31
0.0
  0
LINE
  5
5E
330
32
100
AcDbEntity
  8
1
  6
Continuous
 62
     2
100
AcDbLine
 10
4245.78457403765
 20
-3030.73377382607
 30
0.0
 11
4245.78457403765
 21
-3035.13377382608
 31
0.0
  0
LINE
  5
5F
330
32
100
AcDbEntity
  8
1
  6
Continuous
 62
     2
100
AcDbLine
 10
4247.7392730956
 20
-3030.73377382607
 30
0.0
 11
4247.7392730956
 21
-3035.13377382608
 31
0.0
  0
LINE
  5
60
330
32
100
AcDbEntity
  8
1
  6
Continuous
 62
     2
100
AcDbLine
 10
4250.28668650419
 20
-3030.73377382607
 30
0.0
 11
4250.28668650419
 21
-3035.13377382608
 31
0.0
  0
LINE
  5
61
330
32
100
AcDbEntity
  8
1
  6
Continuous
 62
     2
100
AcDbLine
 10
4253.25321224943
 20
-3030.73377382607
 30
0.0
 11
4253.25321224943
 21
-3035.13377382608
 31
0.0
  0
LINE
  5
62
330
32
100
AcDbEntity
  8
1
  6
DASH_CENTER
 62
     2
100
AcDbLine
 10
4256.43668650419
 20
-3052.43377382608
 30
0.0
 11
4256.43668650419
 21
-2975.12003917223
 31
0.0
  0
LINE
  5
63
330
32
100
AcDbEntity
  8
1
  6
Continuous
 62
     2
100
AcDbLine
 10
4256.43668650419
 20
-3030.73377382607
 30
0.0
 11
4256.43668650419
 21
-3035.13377382608
 31
0.0
  0
LINE
  5
64
330
32
100
AcDbEntity
  8
1
  6
Continuous
 62
     2
100
AcDbLine
 10
4259.62016075896
 20
-3030.73377382607
 30
0.0
 11
4259.62016075896
 21
-3035.13377382608
 31
0.0
  0
LINE
  5
65
330
32
100
AcDbEntity
  8
1
  6
Continuous
 62
     2
100
AcDbLine
 10
4262.58668650419
 20
-3030.73377382607
 30
0.0
 11
4262.58668650419
 21
-3035.13377382608
 31
0.0
  0
LINE
  5
66
330
32
100
AcDbEntity
  8
1
  6
Continuous
 62
     2
100
AcDbLine
 10
4265.13409991279
 20
-3030.73377382607
 30
0.0
 11
4265.13409991279
 21
-3035.13377382608
 31
0.0
  0
LINE
  5
67
330
32
100
AcDbEntity
  8
1
  6
Continuous
 62
     2
100
AcDbLine
 10
4267.08879897074
 20
-3030.73377382607
 30
0.0
 11
4267.08879897074
 21
-3035.13377382608
 31
0.0
  0
LINE
  5
68
330
32
100
AcDbEntity
  8
1
  6
Continuous
 62
     2
100
AcDbLine
 10
4268.31757416755
 20
-3030.73377382607
 30
0.0
 11
4268.31757416755
 21
-3035.13377382608
 31
0.0
  0
LINE
  5
69
330
32
100
AcDbEntity
  8
1
  6
Continuous
 62
     7
100
AcDbLine
 10
4266.33668650419
 20
-3037.43377382608
 30
0.0
 11
4266.33668650419
 21
-3047.83377382608
 31
0.0
  0
LINE
  5
6A
330
32
100
AcDbEntity
  8
1
  6
Continuous
 62
     7
100
AcDbLine
 10
4246.53668650419
 20
-3037.43377382608
 30
0.0
 11
4246.53668650419
 21
-3047.83377382608
 31
0.0
  0
LINE
  5
6B
330
32
100
AcDbEntity
  8
1
  6
Continuous
 62
     7
100
AcDbLine
 10
4237.53668650419
 20
-3020.93377382608
 30
0.0
 11
4275.33668650419
 21
-3020.93377382608
 31
0.0
  0
LINE
  5
6C
330
32
100
AcDbEntity
  8
1
  6
Continuous
 62
     7
100
AcDbLine
 10
4236.43668650419
 20
-2989.93377382608
 30
0.0
 11
4276.43668650419
 21
-2989.93377382608
 31
0.0
  0
LINE
  5
6D
330
32
100
AcDbEntity
  8
1
  6
Continuous
 62
     7
100
AcDbLine
 10
4275.43668650419
 20
-3014.93377382608
 30
0.0
 11
4275.43668650419
 21
-3020.83377382608
 31
0.0
  0
LINE
  5
6E
330
32
100
AcDbEntity
  8
1
  6
Continuous
 62
     7
100
AcDbLine
 10
4237.43668650419
 20
-3014.93377382608
 30
0.0
 11
4237.43668650419
 21
-3020.83377382608
 31
0.0
  0
LINE
  5
6F
330
32
100
AcDbEntity
  8
1
  6
Continuous
 62
     7
100
AcDbLine
 10
4233.43668650419
 20
-2997.93377382608
 30
0.0
 11
4233.43668650419
 21
-3012.93377382608
 31
0.0
  0
LINE
  5
70
330
32
100
AcDbEntity
  8
1
  6
Continuous
 62
     7
100
AcDbLine
 10
4237.43668650419
 20
-2990.03377382608
 30
0.0
 11
4237.43668650419
 21
-2995.93377382608
 31
0.0
  0
LINE
  5
71
330
32
100
AcDbEntity
  8
1
  6
Continuous
 62
     7
100
AcDbLine
 10
4275.43668650419
 20
-2995.93377382608
 30
0.0
 11
4275.43668650419
 21
-2990.03377382608
 31
0.0
  0
LINE
  5
72
330
32
100
AcDbEntity
  8
1
  6
Continuous
 62
     2
100
AcDbLine
 10
4233.43668650419
 20
-3007.53377382608
 30
0.0
 11
4232.43668650419
 21
-3007.53377382608
 31
0.0
  0
LINE
  5
73
330
32
100
AcDbEntity
  8
1
  6
Continuous
 62
     2
100
AcDbLine
 10
4233.43668650419
 20
-3003.33377382608
 30
0.0
 11
4232.43668650419
 21
-3003.33377382608
 31
0.0
  0
LINE
  5
74
330
32
100
AcDbEntity
  8
1
  6
Continuous
 62
     7
100
AcDbLine
 10
4233.43668650419
 20
-3007.93377382608
 30
0.0
 11
4232.43668650419
 21
-3007.93377382608
 31
0.0
  0
LINE
  5
75
330
32
100
AcDbEntity
  8
1
  6
Continuous
 62
     7
100
AcDbLine
 10
4233.43668650419
 20
-3002.93377382608
 30
0.0
 11
4232.43668650419
 21
-3002.93377382608
 31
0.0
  0
LINE
  5
76
330
32
100
AcDbEntity
  8
1
  6
Continuous
 62
     7
100
AcDbLine
 10
4232.43668650419
 20
-3000.73377382607
 30
0.0
 11
4232.43668650419
 21
-3010.13377382608
 31
0.0
  0
LINE
  5
77
330
32
100
AcDbEntity
  8
1
  6
Continuous
 62
     2
100
AcDbLine
 10
4225.73668650419
 20
-3010.43377382608
 30
0.0
 11
4225.73668650419
 21
-3000.43377382608
 31
0.0
  0
LINE
  5
78
330
32
100
AcDbEntity
  8
1
  6
Continuous
 62
     2
100
AcDbLine
 10
4232.13668650419
 20
-3000.43377382608
 30
0.0
 11
4232.13668650419
 21
-3010.43377382608
 31
0.0
  0
LINE
  5
79
330
32
100
AcDbEntity
  8
1
  6
Continuous
 62
     7
100
AcDbLine
 10
4232.43668650419
 20
-3000.73377382607
 30
0.0
 11
4232.13668650419
 21
-3000.43377382608
 31
0.0
  0
LINE
  5
7A
330
32
100
AcDbEntity
  8
1
  6
Continuous
 62
     7
100
AcDbLine
 10
4225.43668650419
 20
-3000.73377382607
 30
0.0
 11
4225.73668650419
 21
-3000.43377382608
 31
0.0
  0
LINE
  5
7B
330
32
100
AcDbEntity
  8
1
  6
Continuous
 62
     7
100
AcDbLine
 10
4225.43668650419
 20
-3010.13377382608
 30
0.0
 11
4225.73668650419
 21
-3010.43377382608
 31
0.0
  0
LINE
  5
7C
330
32
100
AcDbEntity
  8
1
  6
Continuous
 62
     7
100
AcDbLine
 10
4232.13668650419
 20
-3010.43377382608
 30
0.0
 11
4232.43668650419
 21
-3010.13377382608
 31
0.0
  0
LINE
  5
7D
330
32
100
AcDbEntity
  8
1
  6
Continuous
 62
     7
100
AcDbLine
 10
4225.43668650419
 20
-3010.13377382608
 30
0.0
 11
4225.43668650419
 21
-3000.73377382607
 31
0.0
  0
LINE
  5
7E
330
32
100
AcDbEntity
  8
1
  6
Continuous
 62
     7
100
AcDbLine
 10
4232.13668650419
 20
-3010.43377382608
 30
0.0
 11
4225.73668650419
 21
-3010.43377382608
 31
0.0
  0
LINE
  5
7F
330
32
100
AcDbEntity
  8
1
  6
Continuous
 62
     7
100
AcDbLine
 10
4225.73668650419
 20
-3000.43377382608
 30
0.0
 11
4232.13668650419
 21
-3000.43377382608
 31
0.0
  0
LINE
  5
80
330
32
100
AcDbEntity
  8
1
  6
Continuous
 62
     2
100
AcDbLine
 10
4225.73668650419
 20
-3000.60414469463
 30
0.0
 11
4232.13668650419
 21
-3000.60414469463
 31
0.0
  0
LINE
  5
81
330
32
100
AcDbEntity
  8
1
  6
Continuous
 62
     2
100
AcDbLine
 10
4225.73668650419
 20
-3001.10364680715
 30
0.0
 11
4232.13668650419
 21
-3001.10364680715
 31
0.0
  0
LINE
  5
82
330
32
100
AcDbEntity
  8
1
  6
Continuous
 62
     2
100
AcDbLine
 10
4225.73668650419
 20
-3001.89823992014
 30
0.0
 11
4232.13668650419
 21
-3001.89823992014
 31
0.0
  0
LINE
  5
83
330
32
100
AcDbEntity
  8
1
  6
Continuous
 62
     2
100
AcDbLine
 10
4225.73668650419
 20
-3002.93377382608
 30
0.0
 11
4232.13668650419
 21
-3002.93377382608
 31
0.0
  0
LINE
  5
84
330
32
100
AcDbEntity
  8
1
  6
Continuous
 62
     2
100
AcDbLine
 10
4225.73668650419
 20
-3004.13967860056
 30
0.0
 11
4232.13668650419
 21
-3004.13967860056
 31
0.0
  0
LINE
  5
85
330
32
100
AcDbEntity
  8
1
  6
Continuous
 62
     2
100
AcDbLine
 10
4225.73668650419
 20
-3005.43377382608
 30
0.0
 11
4232.13668650419
 21
-3005.43377382608
 31
0.0
  0
LINE
  5
86
330
32
100
AcDbEntity
  8
1
  6
Continuous
 62
     2
100
AcDbLine
 10
4225.73668650419
 20
-3006.72786905159
 30
0.0
 11
4232.13668650419
 21
-3006.72786905159
 31
0.0
  0
LINE
  5
87
330
32
100
AcDbEntity
  8
1
  6
Continuous
 62
     2
100
AcDbLine
 10
4225.73668650419
 20
-3007.93377382608
 30
0.0
 11
4232.13668650419
 21
-3007.93377382608
 31
0.0
  0
LINE
  5
88
330
32
100
AcDbEntity
  8
1
  6
Continuous
 62
     2
100
AcDbLine
 10
4225.73668650419
 20
-3008.96930773201
 30
0.0
 11
4232.13668650419
 21
-3008.96930773201
 31
0.0
  0
LINE
  5
89
330
32
100
AcDbEntity
  8
1
  6
Continuous
 62
     2
100
AcDbLine
 10
4225.73668650419
 20
-3009.763900845
 30
0.0
 11
4232.13668650419
 21
-3009.763900845
 31
0.0
  0
LINE
  5
8A
330
32
100
AcDbEntity
  8
1
  6
Continuous
 62
     2
100
AcDbLine
 10
4225.73668650419
 20
-3010.26340295752
 30
0.0
 11
4232.13668650419
 21
-3010.26340295752
 31
0.0
  0
LINE
  5
8B
330
32
100
AcDbEntity
  8
1
  6
DASH_CENTER
 62
     2
100
AcDbLine
 10
4222.43668650419
 20
-3005.43377382608
 30
0.0
 11
4236.43668650419
 21
-3005.43377382608
 31
0.0
  0
LINE
  5
8C
330
32
100
AcDbEntity
  8
1
  6
Continuous
 62
     7
100
AcDbLine
 10
4244.13668650419
 20
-3035.13377382608
 30
0.0
 11
4244.13668650419
 21
-3030.73377382607
 31
0.0
  0
LINE
  5
8D
330
32
100
AcDbEntity
  8
1
  6
Continuous
 62
     7
100
AcDbLine
 10
4244.43668650419
 20
-3035.43377382608
 30
0.0
 11
4244.13668650419
 21
-3035.13377382608
 31
0.0
  0
LINE
  5
8E
330
32
100
AcDbEntity
  8
1
  6
Continuous
 62
     7
100
AcDbLine
 10
4244.43668650419
 20
-3030.43377382608
 30
0.0
 11
4244.13668650419
 21
-3030.73377382607
 31
0.0
  0
LINE
  5
8F
330
32
100
AcDbEntity
  8
1
  6
Continuous
 62
     7
100
AcDbLine
 10
4268.43668650419
 20
-3035.43377382608
 30
0.0
 11
4268.73668650419
 21
-3035.13377382608
 31
0.0
  0
LINE
  5
90
330
32
100
AcDbEntity
  8
1
  6
Continuous
 62
     7
100
AcDbLine
 10
4268.43668650419
 20
-3030.43377382608
 30
0.0
 11
4268.73668650419
 21
-3030.73377382607
 31
0.0
  0
LINE
  5
91
330
32
100
AcDbEntity
  8
1
  6
Continuous
 62
     7
100
AcDbLine
 10
4244.43668650419
 20
-3027.93377382608
 30
0.0
 11
4244.43668650419
 21
-3030.43377382608
 31
0.0
  0
LINE
  5
92
330
32
100
AcDbEntity
  8
1
  6
Continuous
 62
     7
100
AcDbLine
 10
4268.43668650419
 20
-3035.93377382608
 30
0.0
 11
4244.43668650419
 21
-3035.93377382608
 31
0.0
  0
LINE
  5
93
330
32
100
AcDbEntity
  8
1
  6
Continuous
 62
     7
100
AcDbLine
 10
4244.43668650419
 20
-3035.93377382608
 30
0.0
 11
4244.43668650419
 21
-3035.43377382608
 31
0.0
  0
LINE
  5
94
330
32
100
AcDbEntity
  8
1
  6
Continuous
 62
     7
100
AcDbLine
 10
4246.53668650419
 20
-3037.43377382608
 30
0.0
 11
4245.43668650419
 21
-3035.93377382608
 31
0.0
  0
LINE
  5
95
330
32
100
AcDbEntity
  8
1
  6
Continuous
 62
     7
100
AcDbLine
 10
4266.33668650419
 20
-3037.43377382608
 30
0.0
 11
4246.53668650419
 21
-3037.43377382608
 31
0.0
  0
LINE
  5
96
330
32
100
AcDbEntity
  8
1
  6
Continuous
 62
     7
100
AcDbLine
 10
4267.43668650419
 20
-3035.93377382608
 30
0.0
 11
4266.33668650419
 21
-3037.43377382608
 31
0.0
  0
LINE
  5
97
330
32
100
AcDbEntity
  8
1
  6
Continuous
 62
     7
100
AcDbLine
 10
4268.43668650419
 20
-3035.43377382608
 30
0.0
 11
4268.43668650419
 21
-3035.93377382608
 31
0.0
  0
LINE
  5
98
330
32
100
AcDbEntity
  8
1
  6
Continuous
 62
     7
100
AcDbLine
 10
4268.43668650419
 20
-3030.43377382608
 30
0.0
 11
4268.43668650419
 21
-3027.93377382608
 31
0.0
  0
LINE
  5
99
330
32
100
AcDbEntity
  8
1
  6
Continuous
 62
     7
100
AcDbLine
 10
4244.43668650419
 20
-3030.43377382608
 30
0.0
 11
4268.43668650419
 21
-3030.43377382608
 31
0.0
  0
LINE
  5
9A
330
32
100
AcDbEntity
  8
1
  6
Continuous
 62
     7
100
AcDbLine
 10
4268.73668650419
 20
-3030.73377382607
 30
0.0
 11
4268.73668650419
 21
-3035.13377382608
 31
0.0
  0
LINE
  5
9B
330
32
100
AcDbEntity
  8
1
  6
Continuous
 62
     7
100
AcDbLine
 10
4265.73668650419
 20
-3048.43377382608
 30
0.0
 11
4247.13668650419
 21
-3048.43377382608
 31
0.0
  0
LINE
  5
9C
330
32
100
AcDbEntity
  8
1
  6
Continuous
 62
     7
100
AcDbLine
 10
4270.43668650419
 20
-3027.93377382608
 30
0.0
 11
4242.43668650419
 21
-3027.93377382608
 31
0.0
  0
LINE
  5
9D
330
32
100
AcDbEntity
  8
1
  6
Continuous
 62
     7
100
AcDbLine
 10
4240.43668650419
 20
-3025.93377382608
 30
0.0
 11
4240.43668650419
 21
-3020.93377382608
 31
0.0
  0
LINE
  5
9E
330
32
100
AcDbEntity
  8
1
  6
Continuous
 62
     7
100
AcDbLine
 10
4272.43668650419
 20
-3020.93377382608
 30
0.0
 11
4272.43668650419
 21
-3025.93377382608
 31
0.0
  0
LINE
  5
9F
330
32
100
AcDbEntity
  8
1
  6
Continuous
 62
     7
100
AcDbLine
 10
4274.93668650419
 20
-2892.33377382608
 30
0.0
 11
4274.93668650419
 21
-2942.83377382608
 31
0.0
  0
LINE
  5
A0
330
32
100
AcDbEntity
  8
1
  6
Continuous
 62
     7
100
AcDbLine
 10
4276.11168650419
 20
-2947.93377382608
 30
0.0
 11
4276.11168650419
 21
-2948.43377382608
 31
0.0
  0
LINE
  5
A1
330
32
100
AcDbEntity
  8
1
  6
Continuous
 62
     7
100
AcDbLine
 10
4281.23668650419
 20
-2986.93377382608
 30
0.0
 11
4231.63668650419
 21
-2986.93377382608
 31
0.0
  0
LINE
  5
A2
330
32
100
AcDbEntity
  8
1
  6
Continuous
 62
     7
100
AcDbLine
 10
4279.68668650419
 20
-2988.93377382608
 30
0.0
 11
4256.83668650419
 21
-2988.93377382608
 31
0.0
  0
LINE
  5
A3
330
32
100
AcDbEntity
  8
1
  6
Continuous
 62
     7
100
AcDbLine
 10
4256.83668650419
 20
-2987.63377382608
 30
0.0
 11
4256.83668650419
 21
-2988.93377382608
 31
0.0
  0
LINE
  5
A4
330
32
100
AcDbEntity
  8
1
  6
Continuous
 62
     7
100
AcDbLine
 10
4256.03668650419
 20
-2987.63377382608
 30
0.0
 11
4256.83668650419
 21
-2987.63377382608
 31
0.0
  0
LINE
  5
A5
330
32
100
AcDbEntity
  8
1
  6
Continuous
 62
     7
100
AcDbLine
 10
4256.03668650419
 20
-2988.93377382608
 30
0.0
 11
4233.18668650419
 21
-2988.93377382608
 31
0.0
  0
LINE
  5
A6
330
32
100
AcDbEntity
  8
1
  6
Continuous
 62
     7
100
AcDbLine
 10
4256.03668650419
 20
-2988.93377382608
 30
0.0
 11
4256.03668650419
 21
-2987.63377382608
 31
0.0
  0
LINE
  5
A7
330
32
100
AcDbEntity
  8
1
  6
Continuous
 62
     7
100
AcDbLine
 10
4279.68668650419
 20
-2986.93377382608
 30
0.0
 11
4279.68668650419
 21
-2988.93377382608
 31
0.0
  0
LINE
  5
A8
330
32
100
AcDbEntity
  8
1
  6
Continuous
 62
     7
100
AcDbLine
 10
4233.18668650419
 20
-2988.93377382608
 30
0.0
 11
4233.18668650419
 21
-2986.93377382608
 31
0.0
  0
LINE
  5
A9
330
32
100
AcDbEntity
  8
1
  6
Continuous
 62
     7
100
AcDbLine
 10
4276.43668650419
 20
-2989.93377382608
 30
0.0
 11
4276.43668650419
 21
-2988.93377382608
 31
0.0
  0
LINE
  5
AA
330
32
100
AcDbEntity
  8
1
  6
Continuous
 62
     7
100
AcDbLine
 10
4236.43668650419
 20
-2988.93377382608
 30
0.0
 11
4236.43668650419
 21
-2989.93377382608
 31
0.0
  0
LINE
  5
AB
330
32
100
AcDbEntity
  8
1
  6
Continuous
 62
     7
100
AcDbLine
 10
4235.43668650419
 20
-2948.43377382608
 30
0.0
 11
4231.63668650419
 21
-2952.23377382607
 31
0.0
  0
LINE
  5
AC
330
32
100
AcDbEntity
  8
1
  6
Continuous
 62
     7
100
AcDbLine
 10
4281.23668650419
 20
-2952.23377382607
 30
0.0
 11
4277.43668650419
 21
-2948.43377382608
 31
0.0
  0
LINE
  5
AD
330
32
100
AcDbEntity
  8
1
  6
Continuous
 62
     7
100
AcDbLine
 10
4281.23668650419
 20
-2952.23377382607
 30
0.0
 11
4281.23668650419
 21
-2986.93377382608
 31
0.0
  0
LINE
  5
AE
330
32
100
AcDbEntity
  8
1
  6
Continuous
 62
     2
100
AcDbLine
 10
4231.63668650419
 20
-2952.23377382607
 30
0.0
 11
4281.23668650419
 21
-2952.23377382607
 31
0.0
  0
LINE
  5
AF
330
32
100
AcDbEntity
  8
1
  6
Continuous
 62
     7
100
AcDbLine
 10
4231.63668650419
 20
-2986.93377382608
 30
0.0
 11
4231.63668650419
 21
-2952.23377382607
 31
0.0
  0
LINE
  5
B0
330
32
100
AcDbEntity
  8
1
  6
Continuous
 62
     7
100
AcDbLine
 10
4236.76168650419
 20
-2948.43377382608
 30
0.0
 11
4236.76168650419
 21
-2947.93377382608
 31
0.0
  0
LINE
  5
B1
330
32
100
AcDbEntity
  8
1
  6
Continuous
 62
     7
100
AcDbLine
 10
4274.93668650419
 20
-2942.83377382608
 30
0.0
 11
4237.93668650419
 21
-2942.83377382608
 31
0.0
  0
LINE
  5
B2
330
32
100
AcDbEntity
  8
1
  6
Continuous
 62
     7
100
AcDbLine
 10
4234.48668650419
 20
-2942.93377382608
 30
0.0
 11
4278.38668650419
 21
-2942.93377382608
 31
0.0
  0
LINE
  5
B3
330
32
100
AcDbEntity
  8
1
  6
Continuous
 62
     2
100
AcDbLine
 10
4234.52471399967
 20
-2943.23377382607
 30
0.0
 11
4234.52471399967
 21
-2947.63377382608
 31
0.0
  0
LINE
  5
B4
330
32
100
AcDbEntity
  8
1
  6
Continuous
 62
     2
100
AcDbLine
 10
4235.52852569171
 20
-2947.63377382608
 30
0.0
 11
4235.52852569171
 21
-2943.23377382607
 31
0.0
  0
LINE
  5
B5
330
32
100
AcDbEntity
  8
1
  6
Continuous
 62
     2
100
AcDbLine
 10
4237.16762126999
 20
-2943.23377382607
 30
0.0
 11
4237.16762126999
 21
-2947.63377382608
 31
0.0
  0
LINE
  5
B6
330
32
100
AcDbEntity
  8
1
  6
Continuous
 62
     2
100
AcDbLine
 10
4239.3921976448
 20
-2947.63377382608
 30
0.0
 11
4239.3921976448
 21
-2943.23377382607
 31
0.0
  0
LINE
  5
B7
330
32
100
AcDbEntity
  8
1
  6
Continuous
 62
     2
100
AcDbLine
 10
4242.13466218867
 20
-2943.23377382607
 30
0.0
 11
4242.13466218867
 21
-2947.63377382608
 31
0.0
  0
LINE
  5
B8
330
32
100
AcDbEntity
  8
1
  6
Continuous
 62
     2
100
AcDbLine
 10
4245.31168650419
 20
-2947.63377382608
 30
0.0
 11
4245.31168650419
 21
-2943.23377382607
 31
0.0
  0
LINE
  5
B9
330
32
100
AcDbEntity
  8
1
  6
Continuous
 62
     2
100
AcDbLine
 10
4248.8267383152
 20
-2943.23377382607
 30
0.0
 11
4248.8267383152
 21
-2947.63377382608
 31
0.0
  0
LINE
  5
BA
330
32
100
AcDbEntity
  8
1
  6
Continuous
 62
     2
100
AcDbLine
 10
4256.43668650419
 20
-2947.63377382608
 30
0.0
 11
4256.43668650419
 21
-2943.23377382607
 31
0.0
  0
LINE
  5
BB
330
32
100
AcDbEntity
  8
1
  6
Continuous
 62
     2
100
AcDbLine
 10
4252.5730145511
 20
-2943.23377382607
 30
0.0
 11
4252.5730145511
 21
-2947.63377382608
 31
0.0
  0
LINE
  5
BC
330
32
100
AcDbEntity
  8
1
  6
Continuous
 62
     2
100
AcDbLine
 10
4278.34865900872
 20
-2947.63377382608
 30
0.0
 11
4278.34865900872
 21
-2943.23377382607
 31
0.0
  0
LINE
  5
BD
330
32
100
AcDbEntity
  8
1
  6
Continuous
 62
     2
100
AcDbLine
 10
4277.34484731668
 20
-2943.23377382607
 30
0.0
 11
4277.34484731668
 21
-2947.63377382608
 31
0.0
  0
LINE
  5
BE
330
32
100
AcDbEntity
  8
1
  6
Continuous
 62
     2
100
AcDbLine
 10
4275.7057517384
 20
-2947.63377382608
 30
0.0
 11
4275.7057517384
 21
-2943.23377382607
 31
0.0
  0
LINE
  5
BF
330
32
100
AcDbEntity
  8
1
  6
Continuous
 62
     2
100
AcDbLine
 10
4273.48117536359
 20
-2943.23377382607
 30
0.0
 11
4273.48117536359
 21
-2947.63377382608
 31
0.0
  0
LINE
  5
C0
330
32
100
AcDbEntity
  8
1
  6
Continuous
 62
     2
100
AcDbLine
 10
4270.73871081972
 20
-2943.23377382607
 30
0.0
 11
4270.73871081972
 21
-2947.63377382608
 31
0.0
  0
LINE
  5
C1
330
32
100
AcDbEntity
  8
1
  6
Continuous
 62
     2
100
AcDbLine
 10
4267.56168650419
 20
-2943.23377382607
 30
0.0
 11
4267.56168650419
 21
-2947.63377382608
 31
0.0
  0
LINE
  5
C2
330
32
100
AcDbEntity
  8
1
  6
Continuous
 62
     2
100
AcDbLine
 10
4264.04663469319
 20
-2943.23377382607
 30
0.0
 11
4264.04663469319
 21
-2947.63377382608
 31
0.0
  0
LINE
  5
C3
330
32
100
AcDbEntity
  8
1
  6
Continuous
 62
     2
100
AcDbLine
 10
4260.30035845728
 20
-2947.63377382608
 30
0.0
 11
4260.30035845728
 21
-2943.23377382607
 31
0.0
  0
LINE
  5
C4
330
32
100
AcDbEntity
  8
1
  6
Continuous
 62
     2
100
AcDbLine
 10
4278.68668650419
 20
-2943.23377382607
 30
0.0
 11
4234.18668650419
 21
-2943.23377382607
 31
0.0
  0
LINE
  5
C5
330
32
100
AcDbEntity
  8
1
  6
Continuous
 62
     2
100
AcDbLine
 10
4234.18668650419
 20
-2947.63377382608
 30
0.0
 11
4278.68668650419
 21
-2947.63377382608
 31
0.0
  0
LINE
  5
C6
330
32
100
AcDbEntity
  8
1
  6
Continuous
 62
     7
100
AcDbLine
 10
4278.68668650419
 20
-2943.23377382607
 30
0.0
 11
4278.38668650419
 21
-2942.93377382608
 31
0.0
  0
LINE
  5
C7
330
32
100
AcDbEntity
  8
1
  6
Continuous
 62
     7
100
AcDbLine
 10
4278.38668650419
 20
-2947.93377382608
 30
0.0
 11
4278.68668650419
 21
-2947.63377382608
 31
0.0
  0
LINE
  5
C8
330
32
100
AcDbEntity
  8
1
  6
Continuous
 62
     7
100
AcDbLine
 10
4234.48668650419
 20
-2947.93377382608
 30
0.0
 11
4234.18668650419
 21
-2947.63377382608
 31
0.0
  0
LINE
  5
C9
330
32
100
AcDbEntity
  8
1
  6
Continuous
 62
     7
100
AcDbLine
 10
4234.48668650419
 20
-2942.93377382608
 30
0.0
 11
4234.18668650419
 21
-2943.23377382607
 31
0.0
  0
LINE
  5
CA
330
32
100
AcDbEntity
  8
1
  6
Continuous
 62
     7
100
AcDbLine
 10
4278.68668650419
 20
-2943.23377382607
 30
0.0
 11
4278.68668650419
 21
-2947.63377382608
 31
0.0
  0
LINE
  5
CB
330
32
100
AcDbEntity
  8
1
  6
Continuous
 62
     7
100
AcDbLine
 10
4234.18668650419
 20
-2947.63377382608
 30
0.0
 11
4234.18668650419
 21
-2943.23377382607
 31
0.0
  0
LINE
  5
CC
330
32
100
AcDbEntity
  8
1
  6
Continuous
 62
     7
100
AcDbLine
 10
4240.43668650419
 20
-2882.33377382608
 30
0.0
 11
4237.93668650419
 21
-2892.33377382608
 31
0.0
  0
LINE
  5
CD
330
32
100
AcDbEntity
  8
1
  6
Continuous
 62
     7
100
AcDbLine
 10
4274.93668650419
 20
-2892.33377382608
 30
0.0
 11
4272.43668650419
 21
-2882.33377382608
 31
0.0
  0
LINE
  5
CE
330
32
100
AcDbEntity
  8
1
  6
Continuous
 62
     2
100
AcDbLine
 10
4237.93668650419
 20
-2892.33377382608
 30
0.0
 11
4253.08258453794
 21
-2892.33377382608
 31
0.0
  0
LINE
  5
CF
330
32
100
AcDbEntity
  8
1
  6
Continuous
 62
     7
100
AcDbLine
 10
4237.93668650419
 20
-2942.83377382608
 30
0.0
 11
4237.93668650419
 21
-2892.33377382608
 31
0.0
  0
LINE
  5
D0
330
32
100
AcDbEntity
  8
1
  6
Continuous
 62
     2
100
AcDbLine
 10
4259.79078847044
 20
-2892.33377382608
 30
0.0
 11
4274.93668650419
 21
-2892.33377382608
 31
0.0
  0
LINE
  5
D1
330
32
100
AcDbEntity
  8
1
  6
DASH_CENTER
 62
     2
100
AcDbLine
 10
4248.93668650419
 20
-2895.33377382608
 30
0.0
 11
4263.93668650419
 21
-2895.33377382608
 31
0.0
  0
LINE
  5
D2
330
32
100
AcDbEntity
  8
1
  6
Continuous
 62
     7
100
AcDbLine
 10
4360.43668650419
 20
-2996.93377382608
 30
0.0
 11
4234.43668650419
 21
-2996.93377382608
 31
0.0
  0
LINE
  5
D3
330
32
100
AcDbEntity
  8
1
  6
Continuous
 62
     7
100
AcDbLine
 10
4360.43668650419
 20
-3044.93377382608
 30
0.0
 11
4300.43668650419
 21
-3044.93377382608
 31
0.0
  0
LINE
  5
D4
330
32
100
AcDbEntity
  8
1
  6
DOTTED
 62
     2
100
AcDbLine
 10
4339.43668650419
 20
-2996.93377382608
 30
0.0
 11
4339.43668650419
 21
-3044.93377382608
 31
0.0
  0
LINE
  5
D5
330
32
100
AcDbEntity
  8
1
  6
Continuous
 62
     7
100
AcDbLine
 10
4361.43668650419
 20
-2997.93377382608
 30
0.0
 11
4361.43668650419
 21
-3043.93377382608
 31
0.0
  0
LINE
  5
D6
330
32
100
AcDbEntity
  8
1
  6
DASH_CENTER
 62
     2
100
AcDbLine
 10
4334.53668650419
 20
-3020.93377382608
 30
0.0
 11
4385.63668650419
 21
-3020.93377382608
 31
0.0
  0
LINE
  5
D7
330
32
100
AcDbEntity
  8
1
  6
Continuous
 62
     7
100
AcDbLine
 10
4296.43668650419
 20
-3040.84267612628
 30
0.0
 11
4296.43668650419
 21
-3014.93377382608
 31
0.0
  0
LINE
  5
D8
330
32
100
AcDbEntity
  8
1
  6
Continuous
 62
     7
100
AcDbLine
 10
4234.43668650419
 20
-3013.93377382608
 30
0.0
 11
4300.43668650419
 21
-3013.93377382608
 31
0.0
  0
LINE
  5
D9
330
32
100
AcDbEntity
  8
1
  6
Continuous
 62
     2
100
AcDbLine
 10
4300.43668650419
 20
-3013.93377382608
 30
0.0
 11
4300.43668650419
 21
-3044.93377382608
 31
0.0
  0
LINE
  5
DA
330
32
100
AcDbEntity
  8
1
  6
Continuous
 62
     7
100
AcDbLine
 10
4296.43668650419
 20
-3040.84267612628
 30
0.0
 11
4300.43668650419
 21
-3044.93377382608
 31
0.0
  0
LINE
  5
DB
330
32
100
AcDbEntity
  8
1
  6
Continuous
 62
     7
100
AcDbLine
 10
4361.43668650419
 20
-2997.93377382608
 30
0.0
 11
4360.43668650419
 21
-2996.93377382608
 31
0.0
  0
LINE
  5
DC
330
32
100
AcDbEntity
  8
1
  6
Continuous
 62
     7
100
AcDbLine
 10
4361.43668650419
 20
-3043.93377382608
 30
0.0
 11
4360.43668650419
 21
-3044.93377382608
 31
0.0
  0
LINE
  5
DD
330
32
100
AcDbEntity
  8
1
  6
Continuous
 62
     7
100
AcDbLine
 10
4308.43668650419
 20
-3008.95664965835
 30
0.0
 11
4308.43668650419
 21
-2996.93377382608
 31
0.0
  0
LINE
  5
DE
330
32
100
AcDbEntity
  8
1
  6
Continuous
 62
     7
100
AcDbLine
 10
4308.43668650419
 20
-3044.93377382608
 30
0.0
 11
4308.43668650419
 21
-3036.9108979938
 31
0.0
  0
LINE
  5
DF
330
32
100
AcDbEntity
  8
1
  6
Continuous
 62
     7
100
AcDbLine
 10
4363.63668650419
 20
-3024.93377382608
 30
0.0
 11
4363.63668650419
 21
-3016.93377382608
 31
0.0
  0
LINE
  5
E0
330
32
100
AcDbEntity
  8
1
  6
Continuous
 62
     7
100
AcDbLine
 10
4364.13668650419
 20
-3024.93377382608
 30
0.0
 11
4362.63668650419
 21
-3024.93377382608
 31
0.0
  0
LINE
  5
E1
330
32
100
AcDbEntity
  8
1
  6
Continuous
 62
     7
100
AcDbLine
 10
4361.43668650419
 20
-3023.93377382608
 30
0.0
 11
4362.63668650419
 21
-3023.93377382608
 31
0.0
  0
LINE
  5
E2
330
32
100
AcDbEntity
  8
1
  6
Continuous
 62
     7
100
AcDbLine
 10
4362.63668650419
 20
-3016.93377382608
 30
0.0
 11
4364.13668650419
 21
-3016.93377382608
 31
0.0
  0
LINE
  5
E3
330
32
100
AcDbEntity
  8
1
  6
Continuous
 62
     7
100
AcDbLine
 10
4361.43668650419
 20
-3017.93377382608
 30
0.0
 11
4362.63668650419
 21
-3017.93377382608
 31
0.0
  0
LINE
  5
E4
330
32
100
AcDbEntity
  8
1
  6
Continuous
 62
     7
100
AcDbLine
 10
4362.63668650419
 20
-3024.93377382608
 30
0.0
 11
4362.63668650419
 21
-3016.93377382608
 31
0.0
  0
LINE
  5
E5
330
32
100
AcDbEntity
  8
1
  6
Continuous
 62
     2
100
AcDbLine
 10
4378.13668650419
 20
-3015.79808103564
 30
0.0
 11
4378.13668650419
 21
-3026.06946661651
 31
0.0
  0
LINE
  5
E6
330
32
100
AcDbEntity
  8
1
  6
Continuous
 62
     7
100
AcDbLine
 10
4378.13668650419
 20
-3004.43377382608
 30
0.0
 11
4378.1366865042
 21
-3005.04266018384
 31
0.0
  0
LINE
  5
E7
330
32
100
AcDbEntity
  8
1
  6
Continuous
 62
     7
100
AcDbLine
 10
4378.13668650419
 20
-3037.43377382608
 30
0.0
 11
4378.13668650419
 21
-3036.82488746831
 31
0.0
  0
LINE
  5
E8
330
32
100
AcDbEntity
  8
1
  6
Continuous
 62
     7
100
AcDbLine
 10
4371.63668650419
 20
-3037.43377382608
 30
0.0
 11
4378.13668650419
 21
-3037.43377382608
 31
0.0
  0
LINE
  5
E9
330
32
100
AcDbEntity
  8
1
  6
Continuous
 62
     2
100
AcDbLine
 10
4378.13668650419
 20
-3036.82488746831
 30
0.0
 11
4371.63668650419
 21
-3036.82488746831
 31
0.0
  0
LINE
  5
EA
330
32
100
AcDbEntity
  8
1
  6
Continuous
 62
     2
100
AcDbLine
 10
4371.63668650419
 20
-3026.06946661651
 30
0.0
 11
4378.13668650419
 21
-3026.06946661651
 31
0.0
  0
LINE
  5
EB
330
32
100
AcDbEntity
  8
1
  6
Continuous
 62
     2
100
AcDbLine
 10
4378.13668650419
 20
-3015.79808103564
 30
0.0
 11
4371.63668650419
 21
-3015.79808103564
 31
0.0
  0
LINE
  5
EC
330
32
100
AcDbEntity
  8
1
  6
Continuous
 62
     2
100
AcDbLine
 10
4378.1366865042
 20
-3005.04266018384
 30
0.0
 11
4371.63668650419
 21
-3005.04266018384
 31
0.0
  0
LINE
  5
ED
330
32
100
AcDbEntity
  8
1
  6
Continuous
 62
     7
100
AcDbLine
 10
4371.63668650419
 20
-3004.43377382608
 30
0.0
 11
4378.13668650419
 21
-3004.43377382608
 31
0.0
  0
LINE
  5
EE
330
32
100
AcDbEntity
  8
1
  6
Continuous
 62
     7
100
AcDbLine
 10
4371.63668650419
 20
-3004.43377382608
 30
0.0
 11
4371.63668650419
 21
-3037.43377382608
 31
0.0
  0
LINE
  5
EF
330
32
100
AcDbEntity
  8
1
  6
Continuous
 62
     7
100
AcDbLine
 10
4364.13668650419
 20
-3014.93377382608
 30
0.0
 11
4371.63668650419
 21
-3014.43377382608
 31
0.0
  0
LINE
  5
F0
330
32
100
AcDbEntity
  8
1
  6
Continuous
 62
     7
100
AcDbLine
 10
4371.63668650419
 20
-3027.43377382608
 30
0.0
 11
4364.13668650419
 21
-3026.93377382608
 31
0.0
  0
LINE
  5
F1
330
32
100
AcDbEntity
  8
1
  6
Continuous
 62
     7
100
AcDbLine
 10
4364.13668650419
 20
-3014.93377382608
 30
0.0
 11
4364.13668650419
 21
-3026.93377382608
 31
0.0
  0
LINE
  5
F2
330
32
100
AcDbEntity
  8
1
  6
DASH_CENTER
 62
     2
100
AcDbLine
 10
4317.93668650419
 20
-3003.03377382608
 30
0.0
 11
4317.93668650419
 21
-3042.83377382608
 31
0.0
  0
LINE
  5
F3
330
32
100
AcDbEntity
  8
1
  6
DASH_CENTER
 62
     2
100
AcDbLine
 10
4298.03668650419
 20
-3022.93377382608
 30
0.0
 11
4337.83668650419
 21
-3022.93377382608
 31
0.0
  0
LINE
  5
F4
330
32
100
AcDbEntity
  8
1
  6
DASH_CENTER
 62
     2
100
AcDbLine
 10
4346.43668650419
 20
-2993.93377382608
 30
0.0
 11
4346.43668650419
 21
-3047.93377382608
 31
0.0
  0
LINE
  5
F5
330
32
100
AcDbEntity
  8
1
  6
Continuous
 62
     2
100
AcDbLine
 10
4240.08668650419
 20
-2863.83377382608
 30
0.0
 11
4272.78668650419
 21
-2863.83377382608
 31
0.0
  0
LINE
  5
F6
330
32
100
AcDbEntity
  8
1
  6
Continuous
 62
     7
100
AcDbLine
 10
4239.83668650419
 20
-2872.33377382608
 30
0.0
 11
4273.03668650419
 21
-2872.33377382608
 31
0.0
  0
LINE
  5
F7
330
32
100
AcDbEntity
  8
1
  6
Continuous
 62
     7
100
AcDbLine
 10
4271.78668650419
 20
-2862.83377382608
 30
0.0
 11
4241.08668650419
 21
-2862.83377382608
 31
0.0
  0
LINE
  5
F8
330
32
100
AcDbEntity
  8
1
  6
Continuous
 62
     7
100
AcDbLine
 10
4271.78668650419
 20
-2862.83377382608
 30
0.0
 11
4272.78668650419
 21
-2863.83377382608
 31
0.0
  0
LINE
  5
F9
330
32
100
AcDbEntity
  8
1
  6
Continuous
 62
     7
100
AcDbLine
 10
4240.08668650419
 20
-2863.83377382608
 30
0.0
 11
4241.08668650419
 21
-2862.83377382608
 31
0.0
  0
LINE
  5
FA
330
32
100
AcDbEntity
  8
1
  6
Continuous
 62
     7
100
AcDbLine
 10
4273.03668650419
 20
-2867.83377382608
 30
0.0
 11
4273.33668650419
 21
-2868.13377382608
 31
0.0
  0
LINE
  5
FB
330
32
100
AcDbEntity
  8
1
  6
Continuous
 62
     7
100
AcDbLine
 10
4273.03668650419
 20
-2872.33377382608
 30
0.0
 11
4273.33668650419
 21
-2872.03377382608
 31
0.0
  0
LINE
  5
FC
330
32
100
AcDbEntity
  8
1
  6
Continuous
 62
     7
100
AcDbLine
 10
4239.83668650419
 20
-2872.33377382608
 30
0.0
 11
4239.53668650419
 21
-2872.03377382608
 31
0.0
  0
LINE
  5
FD
330
32
100
AcDbEntity
  8
1
  6
Continuous
 62
     7
100
AcDbLine
 10
4239.83668650419
 20
-2867.83377382608
 30
0.0
 11
4239.53668650419
 21
-2868.13377382608
 31
0.0
  0
LINE
  5
FE
330
32
100
AcDbEntity
  8
1
  6
Continuous
 62
     7
100
AcDbLine
 10
4240.08668650419
 20
-2863.83377382608
 30
0.0
 11
4240.08668650419
 21
-2867.83377382608
 31
0.0
  0
LINE
  5
FF
330
32
100
AcDbEntity
  8
1
  6
Continuous
 62
     7
100
AcDbLine
 10
4239.83668650419
 20
-2867.83377382608
 30
0.0
 11
4273.03668650419
 21
-2867.83377382608
 31
0.0
  0
LINE
  5
100
330
32
100
AcDbEntity
  8
1
  6
Continuous
 62
     7
100
AcDbLine
 10
4272.78668650419
 20
-2867.83377382608
 30
0.0
 11
4272.78668650419
 21
-2863.83377382608
 31
0.0
  0
LINE
  5
101
330
32
100
AcDbEntity
  8
1
  6
Continuous
 62
     7
100
AcDbLine
 10
4239.53668650419
 20
-2872.03377382608
 30
0.0
 11
4239.53668650419
 21
-2868.13377382608
 31
0.0
  0
LINE
  5
102
330
32
100
AcDbEntity
  8
1
  6
Continuous
 62
     7
100
AcDbLine
 10
4273.33668650419
 20
-2868.13377382608
 30
0.0
 11
4273.33668650419
 21
-2872.03377382608
 31
0.0
  0
LINE
  5
103
330
32
100
AcDbEntity
  8
1
  6
Continuous
 62
     7
100
AcDbLine
 10
4272.63668650419
 20
-2882.33377382608
 30
0.0
 11
4240.23668650419
 21
-2882.33377382608
 31
0.0
  0
LINE
  5
104
330
32
100
AcDbEntity
  8
1
  6
Continuous
 62
     7
100
AcDbLine
 10
4272.78668650419
 20
-2882.18377382608
 30
0.0
 11
4272.78668650419
 21
-2872.98377382607
 31
0.0
  0
LINE
  5
105
330
32
100
AcDbEntity
  8
1
  6
Continuous
 62
     7
100
AcDbLine
 10
4272.63668650419
 20
-2872.83377382608
 30
0.0
 11
4240.23668650419
 21
-2872.83377382608
 31
0.0
  0
LINE
  5
106
330
32
100
AcDbEntity
  8
1
  6
Continuous
 62
     7
100
AcDbLine
 10
4240.08668650419
 20
-2872.98377382607
 30
0.0
 11
4240.08668650419
 21
-2882.18377382608
 31
0.0
  0
LINE
  5
107
330
32
100
AcDbEntity
  8
1
  6
Continuous
 62
     7
100
AcDbLine
 10
4271.43668650419
 20
-2872.83377382608
 30
0.0
 11
4271.43668650419
 21
-2872.43377382608
 31
0.0
  0
LINE
  5
108
330
32
100
AcDbEntity
  8
1
  6
Continuous
 62
     7
100
AcDbLine
 10
4241.43668650419
 20
-2872.43377382608
 30
0.0
 11
4241.43668650419
 21
-2872.83377382608
 31
0.0
  0
LINE
  5
109
330
32
100
AcDbEntity
  8
1
  6
Continuous
 62
     7
100
AcDbLine
 10
4241.43668650419
 20
-2872.43377382608
 30
0.0
 11
4241.53668650419
 21
-2872.33377382608
 31
0.0
  0
LINE
  5
10A
330
32
100
AcDbEntity
  8
1
  6
Continuous
 62
     7
100
AcDbLine
 10
4271.33668650419
 20
-2872.33377382608
 30
0.0
 11
4271.43668650419
 21
-2872.43377382608
 31
0.0
  0
LINE
  5
10B
330
32
100
AcDbEntity
  8
1
  6
Continuous
 62
     2
100
AcDbLine
 10
4241.43668650419
 20
-2872.43377382608
 30
0.0
 11
4271.43668650419
 21
-2872.43377382608
 31
0.0
  0
LINE
  5
10C
330
32
100
AcDbEntity
  8
1
  6
Continuous
 62
     7
100
AcDbLine
 10
4272.78668650419
 20
-2882.18377382608
 30
0.0
 11
4272.63668650419
 21
-2882.33377382608
 31
0.0
  0
LINE
  5
10D
330
32
100
AcDbEntity
  8
1
  6
Continuous
 62
     7
100
AcDbLine
 10
4272.63668650419
 20
-2872.83377382608
 30
0.0
 11
4272.78668650419
 21
-2872.98377382607
 31
0.0
  0
LINE
  5
10E
330
32
100
AcDbEntity
  8
1
  6
Continuous
 62
     7
100
AcDbLine
 10
4240.23668650419
 20
-2872.83377382608
 30
0.0
 11
4240.08668650419
 21
-2872.98377382607
 31
0.0
  0
LINE
  5
10F
330
32
100
AcDbEntity
  8
1
  6
Continuous
 62
     7
100
AcDbLine
 10
4240.23668650419
 20
-2882.33377382608
 30
0.0
 11
4240.08668650419
 21
-2882.18377382608
 31
0.0
  0
LINE
  5
110
330
32
100
AcDbEntity
  8
1
  6
Continuous
 62
     2
100
AcDbLine
 10
4272.78668650419
 20
-2882.18377382608
 30
0.0
 11
4240.08668650419
 21
-2882.18377382608
 31
0.0
  0
LINE
  5
111
330
32
100
AcDbEntity
  8
1
  6
Continuous
 62
     2
100
AcDbLine
 10
4272.78668650419
 20
-2872.98377382607
 30
0.0
 11
4240.08668650419
 21
-2872.98377382607
 31
0.0
  0
LINE
  5
112
330
32
100
AcDbEntity
  8
1
  6
DASH_CENTER
 62
     2
100
AcDbLine
 10
4256.43668650419
 20
-2964.68084532379
 30
0.0
 11
4256.43668650419
 21
-2921.61917069897
 31
0.0
  0
LINE
  5
113
330
32
100
AcDbEntity
  8
1
  6
Continuous
 62
     7
100
AcDbLine
 10
4278.38668650419
 20
-2947.93377382608
 30
0.0
 11
4234.48668650419
 21
-2947.93377382608
 31
0.0
  0
LINE
  5
114
330
32
100
AcDbEntity
  8
1
  6
Continuous
 62
     7
100
AcDbLine
 10
4235.43668650419
 20
-2948.43377382608
 30
0.0
 11
4277.43668650419
 21
-2948.43377382608
 31
0.0
  0
LINE
  5
115
330
32
100
AcDbEntity
  8
1
  6
Continuous
 62
     7
100
AcDbLine
 10
4268.43668650419
 20
-3035.43377382608
 30
0.0
 11
4244.43668650419
 21
-3035.43377382608
 31
0.0
  0
ARC
  5
116
330
32
100
AcDbEntity
  8
1
  6
Continuous
 62
     7
100
AcDbCircle
 10
4275.33668650419
 20
-2990.03377382608
 30
0.0
 40
0.1000000000003638
100
AcDbArc
 50
0.0
 51
90.0
  0
ARC
  5
117
330
32
100
AcDbEntity
  8
1
  6
Continuous
 62
     7
100
AcDbCircle
 10
4276.43668650419
 20
-3014.93377382608
 30
0.0
 40
1.0
100
AcDbArc
 50
90.0
 51
180.0
  0
ARC
  5
118
330
32
100
AcDbEntity
  8
1
  6
Continuous
 62
     7
100
AcDbCircle
 10
4276.43668650419
 20
-2995.93377382608
 30
0.0
 40
1.0
100
AcDbArc
 50
180.0
 51
-90.0
  0
ARC
  5
119
330
32
100
AcDbEntity
  8
1
  6
Continuous
 62
     7
100
AcDbCircle
 10
4236.43668650419
 20
-3014.93377382608
 30
0.0
 40
1.0
100
AcDbArc
 50
0.0
 51
90.0
  0
ARC
  5
11A
330
32
100
AcDbEntity
  8
1
  6
Continuous
 62
     7
100
AcDbCircle
 10
4236.43668650419
 20
-2995.93377382608
 30
0.0
 40
1.0
100
AcDbArc
 50
-90.0
 51
0.0
  0
ARC
  5
11B
330
32
100
AcDbEntity
  8
1
  6
Continuous
 62
     7
100
AcDbCircle
 10
4275.33668650419
 20
-3020.83377382608
 30
0.0
 40
0.1000000000003638
100
AcDbArc
 50
-90.0
 51
0.0
  0
ARC
  5
11C
330
32
100
AcDbEntity
  8
1
  6
Continuous
 62
     7
100
AcDbCircle
 10
4237.53668650419
 20
-3020.83377382608
 30
0.0
 40
0.0999999999994543
100
AcDbArc
 50
180.0
 51
-90.0
  0
ARC
  5
11D
330
32
100
AcDbEntity
  8
1
  6
Continuous
 62
     7
100
AcDbCircle
 10
4237.53668650419
 20
-2990.03377382608
 30
0.0
 40
0.0999999999999091
100
AcDbArc
 50
90.0
 51
180.0
  0
ARC
  5
11E
330
32
100
AcDbEntity
  8
1
  6
Continuous
 62
     7
100
AcDbCircle
 10
4234.43668650419
 20
-3012.93377382608
 30
0.0
 40
1.0
100
AcDbArc
 50
180.0
 51
-90.0
  0
ARC
  5
11F
330
32
100
AcDbEntity
  8
1
  6
Continuous
 62
     7
100
AcDbCircle
 10
4234.43668650419
 20
-2997.93377382608
 30
0.0
 40
1.0
100
AcDbArc
 50
90.0
 51
180.0
  0
ARC
  5
120
330
32
100
AcDbEntity
  8
1
  6
Continuous
 62
     7
100
AcDbCircle
 10
4247.13668650419
 20
-3047.83377382608
 30
0.0
 40
0.6000000000003638
100
AcDbArc
 50
180.0
 51
-90.0
  0
ARC
  5
121
330
32
100
AcDbEntity
  8
1
  6
Continuous
 62
     7
100
AcDbCircle
 10
4265.73668650419
 20
-3047.83377382608
 30
0.0
 40
0.6000000000003638
100
AcDbArc
 50
-90.0
 51
0.0
  0
ARC
  5
122
330
32
100
AcDbEntity
  8
1
  6
Continuous
 62
     7
100
AcDbCircle
 10
4270.43668650419
 20
-3025.93377382608
 30
0.0
 40
2.0
100
AcDbArc
 50
-90.0
 51
0.0
  0
ARC
  5
123
330
32
100
AcDbEntity
  8
1
  6
Continuous
 62
     7
100
AcDbCircle
 10
4242.43668650419
 20
-3025.93377382608
 30
0.0
 40
2.0
100
AcDbArc
 50
180.0
 51
-90.0
  0
ARC
  5
124
330
32
100
AcDbEntity
  8
1
  6
Continuous
 62
     7
100
AcDbCircle
 10
4295.43668650419
 20
-3014.93377382608
 30
0.0
 40
1.0
100
AcDbArc
 50
0.0
 51
90.0
  0
ARC
  5
125
330
32
100
AcDbEntity
  8
1
  6
Continuous
 62
     7
100
AcDbCircle
 10
4324.93668650419
 20
-3020.93377382608
 30
0.0
 40
55.69999999999983
100
AcDbArc
 50
-17.23129636832828
 51
0.0
  0
ARC
  5
126
330
32
100
AcDbEntity
  8
1
  6
Continuous
 62
     2
100
AcDbCircle
 10
4317.93668650419
 20
-3022.93377382608
 30
0.0
 40
5.699999999999818
100
AcDbArc
 50
-90.0
 51
0.0
  0
ARC
  5
127
330
32
100
AcDbEntity
  8
1
  6
Continuous
 62
     2
100
AcDbCircle
 10
4317.93668650419
 20
-3022.93377382608
 30
0.0
 40
5.699999999999818
100
AcDbArc
 50
0.0
 51
-90.0
  0
ARC
  5
128
330
32
100
AcDbEntity
  8
1
  6
Continuous
 62
     2
100
AcDbCircle
 10
4365.68468598629
 20
-3010.42037060974
 30
0.0
 40
13.56363101542565
100
AcDbArc
 50
-23.3583190936675
 51
23.3583190936525
  0
ARC
  5
129
330
32
100
AcDbEntity
  8
1
  6
Continuous
 62
     2
100
AcDbCircle
 10
4365.68468598629
 20
-3031.44717704241
 30
0.0
 40
13.56363101542565
100
AcDbArc
 50
-23.3583190936675
 51
23.35831909366926
  0
ARC
  5
12A
330
32
100
AcDbEntity
  8
1
  6
Continuous
 62
     7
100
AcDbCircle
 10
4324.93668650419
 20
-3020.93377382608
 30
0.0
 40
55.69999999999982
100
AcDbArc
 50
0.0
 51
17.23129636832828
  0
CIRCLE
  5
12B
330
32
100
AcDbEntity
  8
1
  6
Continuous
 62
     2
100
AcDbCircle
 10
4256.43668650419
 20
-2895.33377382608
 30
0.0
 40
4.199999999999818
  0
CIRCLE
  5
12C
330
32
100
AcDbEntity
  8
1
  6
Continuous
 62
     7
100
AcDbCircle
 10
4321.93668650419
 20
-3022.93377382608
 30
0.0
 40
0.8499999999994543
  0
CIRCLE
  5
12D
330
32
100
AcDbEntity
  8
1
  6
Continuous
 62
     7
100
AcDbCircle
 10
4313.93668650419
 20
-3022.93377382608
 30
0.0
 40
0.8499999999994543
  0
CIRCLE
  5
12E
330
32
100
AcDbEntity
  8
1
  6
Continuous
 62
     2
100
AcDbCircle
 10
4346.43668650419
 20
-3020.93377382608
 30
0.0
 40
2.0
  0
CIRCLE
  5
12F
330
32
100
AcDbEntity
  8
1
  6
Continuous
 62
     7
100
AcDbCircle
 10
4346.43668650419
 20
-3020.93377382608
 30
0.0
 40
1.550000000000182
  0
CIRCLE
  5
130
330
32
100
AcDbEntity
  8
1
  6
Continuous
 62
     7
100
AcDbCircle
 10
4317.93668650419
 20
-3022.93377382608
 30
0.0
 40
16.89999999999964
  0
CIRCLE
  5
131
330
32
100
AcDbEntity
  8
1
  6
Continuous
 62
     2
100
AcDbCircle
 10
4317.93668650419
 20
-3022.93377382608
 30
0.0
 40
16.59999999999945
  0
CIRCLE
  5
132
330
32
100
AcDbEntity
  8
1
  6
Continuous
 62
     7
100
AcDbCircle
 10
4317.93668650419
 20
-3022.93377382608
 30
0.0
 40
5.899999999999636
  0
CIRCLE
  5
133
330
32
100
AcDbEntity
  8
1
  6
Continuous
 62
     7
100
AcDbCircle
 10
4256.43668650419
 20
-2895.33377382608
 30
0.0
 40
4.5
  0
CIRCLE
  5
134
330
32
100
AcDbEntity
  8
1
  6
Continuous
 62
     7
100
AcDbCircle
 10
4361.43668650419
 20
-2839.18833609939
 30
0.0
 40
1.0
  0
CIRCLE
  5
135
330
32
100
AcDbEntity
  8
1
  6
Continuous
 62
     7
100
AcDbCircle
 10
4216.993816602
 20
-2989.93377382608
 30
0.0
 40
1.0
  0
CIRCLE
  5
136
330
32
100
AcDbEntity
  8
1
  6
Continuous
 62
     7
100
AcDbCircle
 10
4216.93043381286
 20
-3020.93377382608
 30
0.0
 40
1.0
  0
TEXT
  5
13B
330
32
100
AcDbEntity
  8
1
 62
     7
100
AcDbText
 10
4270.42627029421
 20
-2800.35895701913
 30
0.0
 40
15.0
  1
MS-1(A)
 41
0.9
  7
CONVERTER_1
100
AcDbText
  0
MTEXT
  5
13C
330
32
100
AcDbEntity
  8
1
 62
     2
100
AcDbMText
 10
4256.43668650419
 20
-3042.93377382608
 30
0.0
 40
9.0
 41
0.0
 71
     5
 72
     1
  1
2
  7
CONVERTER_1
 73
     1
 44
1.0
  0
DIMENSION
  5
150
330
32
100
AcDbEntity
  8
0
100
AcDbDimension
  2
*D02
 10
4199.02512873738
 20
-2862.83377382608
 30
0.0
 11
4191.02512873738
 21
-2955.63377382608
 31
0.0
 70
    32
  1
(185.6
 71
     5
 42
-1.0
 53
90.0
  3
ME10_DIM_0
100
AcDbAlignedDimension
 13
4247.13668650419
 23
-3048.43377382608
 33
0.0
 14
4241.08668650419
 24
-2862.83377382608
 34
0.0
 50
90.0
100
AcDbRotatedDimension
  0
DIMENSION
  5
15D
330
32
100
AcDbEntity
  8
0
100
AcDbDimension
  2
*D14
 10
4353.436686504197
 20
-3066.0
 30
0.0
 11
4312.07866453843
 21
-3058.0
 31
0.0
 70
    32
  1
{\Fgdt;n}14
 71
     5
 42
-1.0
 53
0.00013888888889
  3
ME10_DIM_1
100
AcDbAlignedDimension
 13
4339.43668650419
 23
-3044.93377382608
 33
0.0
 14
4353.43668650419
 24
-3044.93377382608
 34
0.0
100
AcDbRotatedDimension
  0
DIMENSION
  5
16B
330
32
100
AcDbEntity
  8
0
100
AcDbDimension
  2
*D25
 10
4216.993816602
 20
-2862.833773826081
 30
0.0
 11
4208.993816602
 21
-2926.38377382608
 31
0.0
 70
    32
  1
127.1
 71
     5
 42
-1.0
 53
90.0
  3
ME10_DIM_2
100
AcDbAlignedDimension
 13
4236.43668650419
 23
-2989.93377382608
 33
0.0
 14
4241.08668650419
 24
-2862.83377382608
 34
0.0
 50
90.0
100
AcDbRotatedDimension
  0
DIMENSION
  5
178
330
32
100
AcDbEntity
  8
0
100
AcDbDimension
  2
*D37
 10
4274.93668650419
 20
-2921.71567776841
 30
0.0
 11
4256.43668650419
 21
-2913.71567776841
 31
0.0
 70
    32
  1
{\Fgdt;n}37
 71
     5
 42
-1.0
 53
0.00013888888889
  3
ME10_DIM_3
100
AcDbAlignedDimension
 13
4237.93668650419
 23
-2892.33377382608
 33
0.0
 14
4274.93668650419
 24
-2892.33377382608
 34
0.0
100
AcDbRotatedDimension
  0
DIMENSION
  5
185
330
32
100
AcDbEntity
  8
0
100
AcDbDimension
  2
*D48
 10
4346.43668650419
 20
-3087.03374322393
 30
0.0
 11
4301.43668650419
 21
-3079.03374322393
 31
0.0
 70
    32
  1
90
 71
     5
 42
-1.0
 53
0.00013888888889
  3
ME10_DIM_4
100
AcDbAlignedDimension
 13
4256.43668650419
 23
-3052.43377382608
 33
0.0
 14
4346.43668650419
 24
-3047.93377382608
 34
0.0
100
AcDbRotatedDimension
  0
DIMENSION
  5
192
330
32
100
AcDbEntity
  8
0
100
AcDbDimension
  2
*D59
 10
4402.09805291809
 20
-3044.933773826081
 30
0.0
 11
4394.09805291809
 21
-3020.93377382608
 31
0.0
 70
    32
  1
48
 71
     5
 42
-1.0
 53
90.0
  3
ME10_DIM_5
100
AcDbAlignedDimension
 13
4360.43668650419
 23
-2996.93377382608
 33
0.0
 14
4360.43668650419
 24
-3044.93377382608
 34
0.0
 50
90.0
100
AcDbRotatedDimension
  0
DIMENSION
  5
19F
330
32
100
AcDbEntity
  8
0
100
AcDbDimension
  2
*D610
 10
4281.23668650419
 20
-2974.69589800047
 30
0.0
 11
4256.43668650419
 21
-2966.69589800047
 31
0.0
 70
    32
  1
{\Fgdt;n}49.6
 71
     5
 42
-1.0
 53
0.00013888888889
  3
ME10_DIM_6
100
AcDbAlignedDimension
 13
4231.63668650419
 23
-2952.23377382607
 33
0.0
 14
4281.23668650419
 24
-2952.23377382607
 34
0.0
100
AcDbRotatedDimension
  0
DIMENSION
  5
1AB
330
32
100
AcDbEntity
  8
0
100
AcDbDimension
  2
*D711
 10
4361.436686504189
 20
-2839.16364263427
 30
0.0
 11
4371.03668650419
 21
-2831.16364263427
 31
0.0
 70
    32
  1
(19.2
 71
     5
 42
-1.0
 53
0.00013888888889
  3
ME10_DIM_7
100
AcDbAlignedDimension
 13
4380.63668650419
 23
-3020.93377382608
 33
0.0
 14
4361.43668650419
 24
-2997.93377382608
 34
0.0
100
AcDbRotatedDimension
  0
DIMENSION
  5
1B6
330
32
100
AcDbEntity
  8
0
100
AcDbDimension
  2
*D812
 10
4361.43668650419
 20
-2839.18913925796
 30
0.0
 11
4308.93668650419
 21
-2831.18913925796
 31
0.0
 70
    32
  1
105
 71
     5
 42
-1.0
 53
0.00013888888889
  3
ME10_DIM_8
100
AcDbAlignedDimension
 13
4256.43668650419
 23
-2857.83377382608
 33
0.0
 14
4361.43668650419
 24
-2997.93377382608
 34
0.0
100
AcDbRotatedDimension
  0
DIMENSION
  5
1C0
330
32
100
AcDbEntity
  8
0
100
AcDbDimension
  2
*D913
 10
4216.993816602
 20
-3020.93377382608
 30
0.0
 11
4208.993816602
 21
-3005.43377382608
 31
0.0
 70
    32
  1
31
 71
     5
 42
-1.0
 53
90.0
  3
ME10_DIM_9
100
AcDbAlignedDimension
 13
4236.43668650419
 23
-2989.93377382608
 33
0.0
 14
4237.53668650419
 24
-3020.93377382608
 34
0.0
 50
90.0
100
AcDbRotatedDimension
  0
DIMENSION
  5
1CC
330
32
100
AcDbEntity
  8
0
100
AcDbDimension
  2
*D1014
 10
4216.993816602
 20
-3048.433773826081
 30
0.0
 11
4208.993816602
 21
-3034.68377382608
 31
0.0
 70
    32
  1
27.5
 71
     5
 42
-1.0
 53
90.0
  3
ME10_DIM_10
100
AcDbAlignedDimension
 13
4237.53668650419
 23
-3020.93377382608
 33
0.0
 14
4247.13668650419
 24
-3048.43377382608
 34
0.0
 50
90.0
100
AcDbRotatedDimension
  0
HATCH
  5
1CD
330
32
100
AcDbEntity
  8
0
  6
Continuous
 62
     2
100
AcDbHatch
 10
0.0
 20
0.0
 30
0.0
210
0.0
220
0.0
230
1.0
  2
CUSTOM0
 70
     0
 71
     0
 91
        1
 92
        1
 93
       32
 72
     1
 10
4360.43668650419
 20
-2839.18833609939
 11
4360.45661992635
 21
-2839.38700543018
 72
     1
 10
4360.45661992635
 20
-2839.38700543018
 11
4360.51562551019
 21
-2839.5777544417
 72
     1
 10
4360.51562551019
 20
-2839.5777544417
 11
4360.61135088928
 21
-2839.75297857278
 72
     1
 10
4360.61135088928
 20
-2839.75297857278
 11
4360.73997979485
 21
-2839.90569219029
 72
     1
 10
4360.73997979485
 20
-2839.90569219029
 11
4360.896384198331
 21
-2840.0298070842
 72
     1
 10
4360.896384198331
 20
-2840.0298070842
 11
4361.07432874972
 21
-2840.12037518536
 72
     1
 10
4361.07432874972
 20
-2840.12037518536
 11
4361.26671936129
 21
-2840.17378582938
 72
     1
 10
4361.26671936129
 20
-2840.17378582938
 11
4361.4658860265
 21
-2840.18790970243
 72
     1
 10
4361.4658860265
 20
-2840.18790970243
 11
4361.66388859889
 21
-2840.16218373027
 72
     1
 10
4361.66388859889
 20
-2840.16218373027
 11
4361.85283334074
 21
-2840.09763352621
 72
     1
 10
4361.85283334074
 20
-2840.09763352621
 11
4362.02518762145
 21
-2839.99683250321
 72
     1
 10
4362.02518762145
 20
-2839.99683250321
 11
4362.17408021974
 21
-2839.86379927994
 72
     1
 10
4362.17408021974
 20
-2839.86379927994
 11
4362.29357525756
 21
-2839.70383747121
 72
     1
 10
4362.29357525756
 20
-2839.70383747121
 11
4362.37890884486
 21
-2839.52332424954
 72
     1
 10
4362.37890884486
 20
-2839.52332424954
 11
4362.42667900079
 21
-2839.32945610745
 72
     1
 10
4362.42667900079
 20
-2839.32945610745
 11
4362.43498127999
 21
-2839.12996195596
 72
     1
 10
4362.43498127999
 20
-2839.12996195596
 11
4362.40348469677
 21
-2838.93279499736
 72
     1
 10
4362.40348469677
 20
-2838.93279499736
 11
4362.33344492053
 21
-2838.74581565609
 72
     1
 10
4362.33344492053
 20
-2838.74581565609
 11
4362.22765421611
 21
-2838.57647820845
 72
     1
 10
4362.22765421611
 20
-2838.57647820845
 11
4362.09033012506
 21
-2838.43153360408
 72
     1
 10
4362.09033012506
 20
-2838.43153360408
 11
4361.92694732553
 21
-2838.31676032698
 72
     1
 10
4361.92694732553
 20
-2838.31676032698
 11
4361.74401937417
 21
-2838.2367340255
 72
     1
 10
4361.74401937417
 20
-2838.2367340255
 11
4361.54883903113
 21
-2838.19464509576
 72
     1
 10
4361.54883903113
 20
-2838.19464509576
 11
4361.34918752075
 21
-2838.19217149055
 72
     1
 10
4361.34918752075
 20
-2838.19217149055
 11
4361.15302431873
 21
-2838.22941182473
 72
     1
 10
4361.15302431873
 20
-2838.22941182473
 11
4360.968169832891
 21
-2838.30488144367
 72
     1
 10
4360.968169832891
 20
-2838.30488144367
 11
4360.80199362825
 21
-2838.41557161183
 72
     1
 10
4360.80199362825
 20
-2838.41557161183
 11
4360.66112062568
 21
-2838.55706946152
 72
     1
 10
4360.66112062568
 20
-2838.55706946152
 11
4360.55116698725
 21
-2838.72373391998
 72
     1
 10
4360.55116698725
 20
-2838.72373391998
 11
4360.47651621754
 21
-2838.90892060119
 72
     1
 10
4360.47651621754
 20
-2838.90892060119
 11
4360.44014440717
 21
-2839.10524669657
 72
     1
 10
4360.44014440717
 20
-2839.10524669657
 11
4360.43668650419
 21
-2839.18833609939
 97
        0
 75
     1
 76
     2
 52
44.99999999999998
 41
0.02
 77
     0
 78
     1
 53
44.99999999999998
 43
0.0050827750666818
 44
-0.0050827750666818
 45
-0.0282842712474619
 46
0.0
 79
     0
 98
        1
 10
0.0
 20
0.0
  0
HATCH
  5
1CE
330
32
100
AcDbEntity
  8
0
  6
Continuous
 62
     2
100
AcDbHatch
 10
0.0
 20
0.0
 30
0.0
210
0.0
220
0.0
230
1.0
  2
CUSTOM1
 70
     0
 71
     0
 91
        1
 92
        1
 93
       32
 72
     1
 10
4215.993816602
 20
-2989.93377382608
 11
4216.01375002416
 21
-2990.13244315687
 72
     1
 10
4216.01375002416
 20
-2990.13244315687
 11
4216.072755608
 21
-2990.32319216838
 72
     1
 10
4216.072755608
 20
-2990.32319216838
 11
4216.16848098709
 21
-2990.49841629947
 72
     1
 10
4216.16848098709
 20
-2990.49841629947
 11
4216.29710989265
 21
-2990.65112991697
 72
     1
 10
4216.29710989265
 20
-2990.65112991697
 11
4216.45351429613
 21
-2990.77524481088
 72
     1
 10
4216.45351429613
 20
-2990.77524481088
 11
4216.63145884752
 21
-2990.86581291204
 72
     1
 10
4216.63145884752
 20
-2990.86581291204
 11
4216.8238494591
 21
-2990.91922355606
 72
     1
 10
4216.8238494591
 20
-2990.91922355606
 11
4217.0230161243
 21
-2990.93334742912
 72
     1
 10
4217.0230161243
 20
-2990.93334742912
 11
4217.22101869669
 21
-2990.90762145695
 72
     1
 10
4217.22101869669
 20
-2990.90762145695
 11
4217.40996343855
 21
-2990.8430712529
 72
     1
 10
4217.40996343855
 20
-2990.8430712529
 11
4217.58231771925
 21
-2990.74227022989
 72
     1
 10
4217.58231771925
 20
-2990.74227022989
 11
4217.73121031754
 21
-2990.60923700663
 72
     1
 10
4217.73121031754
 20
-2990.60923700663
 11
4217.85070535537
 21
-2990.4492751979
 72
     1
 10
4217.85070535537
 20
-2990.4492751979
 11
4217.93603894267
 21
-2990.26876197623
 72
     1
 10
4217.93603894267
 20
-2990.26876197623
 11
4217.9838090986
 21
-2990.07489383413
 72
     1
 10
4217.9838090986
 20
-2990.07489383413
 11
4217.99211137779
 21
-2989.87539968265
 72
     1
 10
4217.99211137779
 20
-2989.87539968265
 11
4217.96061479458
 21
-2989.67823272405
 72
     1
 10
4217.96061479458
 20
-2989.67823272405
 11
4217.89057501833
 21
-2989.49125338278
 72
     1
 10
4217.89057501833
 20
-2989.49125338278
 11
4217.78478431391
 21
-2989.32191593513
 72
     1
 10
4217.78478431391
 20
-2989.32191593513
 11
4217.64746022286
 21
-2989.17697133077
 72
     1
 10
4217.64746022286
 20
-2989.17697133077
 11
4217.48407742334
 21
-2989.06219805366
 72
     1
 10
4217.48407742334
 20
-2989.06219805366
 11
4217.30114947198
 21
-2988.98217175219
 72
     1
 10
4217.30114947198
 20
-2988.98217175219
 11
4217.10596912893
 21
-2988.94008282244
 72
     1
 10
4217.10596912893
 20
-2988.94008282244
 11
4216.90631761856
 21
-2988.93760921724
 72
     1
 10
4216.90631761856
 20
-2988.93760921724
 11
4216.71015441654
 21
-2988.97484955141
 72
     1
 10
4216.71015441654
 20
-2988.97484955141
 11
4216.5252999307
 21
-2989.05031917036
 72
     1
 10
4216.5252999307
 20
-2989.05031917036
 11
4216.35912372606
 21
-2989.16100933852
 72
     1
 10
4216.35912372606
 20
-2989.16100933852
 11
4216.21825072349
 21
-2989.3025071882
 72
     1
 10
4216.21825072349
 20
-2989.3025071882
 11
4216.10829708506
 21
-2989.46917164666
 72
     1
 10
4216.10829708506
 20
-2989.46917164666
 11
4216.03364631535
 21
-2989.65435832788
 72
     1
 10
4216.03364631535
 20
-2989.65435832788
 11
4215.99727450498
 21
-2989.85068442326
 72
     1
 10
4215.99727450498
 20
-2989.85068442326
 11
4215.993816602
 21
-2989.93377382608
 97
        0
 75
     1
 76
     2
 52
44.99999999999998
 41
0.02
 77
     0
 78
     1
 53
44.99999999999998
 43
0.0050827750666818
 44
-0.0050827750666818
 45
-0.0282842712474619
 46
0.0
 79
     0
 98
        1
 10
0.0
 20
0.0
  0
HATCH
  5
1CF
330
32
100
AcDbEntity
  8
0
  6
Continuous
 62
     2
100
AcDbHatch
 10
0.0
 20
0.0
 30
0.0
210
0.0
220
0.0
230
1.0
  2
CUSTOM2
 70
     0
 71
     0
 91
        1
 92
        1
 93
       32
 72
     1
 10
4215.93043381286
 20
-3020.93377382608
 11
4215.95036723502
 21
-3021.13244315687
 72
     1
 10
4215.95036723502
 20
-3021.13244315687
 11
4216.00937281886
 21
-3021.32319216838
 72
     1
 10
4216.00937281886
 20
-3021.32319216838
 11
4216.10509819795
 21
-3021.49841629947
 72
     1
 10
4216.10509819795
 20
-3021.49841629947
 11
4216.23372710351
 21
-3021.65112991697
 72
     1
 10
4216.23372710351
 20
-3021.65112991697
 11
4216.39013150699
 21
-3021.77524481088
 72
     1
 10
4216.39013150699
 20
-3021.77524481088
 11
4216.56807605838
 21
-3021.86581291204
 72
     1
 10
4216.56807605838
 20
-3021.86581291204
 11
4216.76046666996
 21
-3021.91922355606
 72
     1
 10
4216.76046666996
 20
-3021.91922355606
 11
4216.95963333516
 21
-3021.93334742912
 72
     1
 10
4216.95963333516
 20
-3021.93334742912
 11
4217.15763590755
 21
-3021.90762145695
 72
     1
 10
4217.15763590755
 20
-3021.90762145695
 11
4217.34658064941
 21
-3021.8430712529
 72
     1
 10
4217.34658064941
 20
-3021.8430712529
 11
4217.51893493012
 21
-3021.74227022989
 72
     1
 10
4217.51893493012
 20
-3021.74227022989
 11
4217.6678275284
 21
-3021.60923700663
 72
     1
 10
4217.6678275284
 20
-3021.60923700663
 11
4217.78732256623
 21
-3021.4492751979
 72
     1
 10
4217.78732256623
 20
-3021.4492751979
 11
4217.87265615353
 21
-3021.26876197623
 72
     1
 10
4217.87265615353
 20
-3021.26876197623
 11
4217.92042630946
 21
-3021.07489383413
 72
     1
 10
4217.92042630946
 20
-3021.07489383413
 11
4217.92872858865
 21
-3020.87539968265
 72
     1
 10
4217.92872858865
 20
-3020.87539968265
 11
4217.89723200544
 21
-3020.67823272405
 72
     1
 10
4217.89723200544
 20
-3020.67823272405
 11
4217.82719222919
 21
-3020.49125338278
 72
     1
 10
4217.82719222919
 20
-3020.49125338278
 11
4217.72140152477
 21
-3020.32191593513
 72
     1
 10
4217.72140152477
 20
-3020.32191593513
 11
4217.58407743372
 21
-3020.17697133077
 72
     1
 10
4217.58407743372
 20
-3020.17697133077
 11
4217.4206946342
 21
-3020.06219805366
 72
     1
 10
4217.4206946342
 20
-3020.06219805366
 11
4217.23776668284
 21
-3019.98217175219
 72
     1
 10
4217.23776668284
 20
-3019.98217175219
 11
4217.0425863398
 21
-3019.94008282244
 72
     1
 10
4217.0425863398
 20
-3019.94008282244
 11
4216.84293482942
 21
-3019.93760921724
 72
     1
 10
4216.84293482942
 20
-3019.93760921724
 11
4216.6467716274
 21
-3019.97484955141
 72
     1
 10
4216.6467716274
 20
-3019.97484955141
 11
4216.46191714156
 21
-3020.05031917036
 72
     1
 10
4216.46191714156
 20
-3020.05031917036
 11
4216.29574093692
 21
-3020.16100933852
 72
     1
 10
4216.29574093692
 20
-3020.16100933852
 11
4216.15486793435
 21
-3020.3025071882
 72
     1
 10
4216.15486793435
 20
-3020.3025071882
 11
4216.04491429592
 21
-3020.46917164666
 72
     1
 10
4216.04491429592
 20
-3020.46917164666
 11
4215.97026352621
 21
-3020.65435832788
 72
     1
 10
4215.97026352621
 20
-3020.65435832788
 11
4215.93389171584
 21
-3020.85068442326
 72
     1
 10
4215.93389171584
 20
-3020.85068442326
 11
4215.93043381286
 21
-3020.93377382608
 97
        0
 75
     1
 76
     2
 52
44.99999999999998
 41
0.02
 77
     0
 78
     1
 53
44.99999999999998
 43
0.0050827750666818
 44
-0.0050827750666818
 45
-0.0282842712474619
 46
0.0
 79
     0
 98
        1
 10
0.0
 20
0.0
  0
ENDBLK
  5
34
330
32
100
AcDbEntity
  8
0
100
AcDbBlockEnd
  0
BLOCK
  5
147
330
13D
100
AcDbEntity
  8
0
100
AcDbBlockBegin
  2
*D02
 70
     1
 71
     0
 10
0.0
 20
0.0
 30
0.0
  3
*D02
  1

  0
LINE
  5
13E
330
13D
100
AcDbEntity
  8
0
  6
Continuous
 62
     2
100
AcDbLine
 10
4199.02512873738
 20
-3048.433773826081
 30
0.0
 11
4199.02512873738
 21
-2862.83377382608
 31
0.0
  0
LINE
  5
13F
330
13D
100
AcDbEntity
  8
0
  6
Continuous
 62
     2
100
AcDbLine
 10
4236.086686504198
 20
-2862.83377382608
 30
0.0
 11
4196.52512873738
 21
-2862.83377382608
 31
0.0
  0
LINE
  5
140
330
13D
100
AcDbEntity
  8
0
  6
Continuous
 62
     2
100
AcDbLine
 10
4242.136686504198
 20
-3048.433773826081
 30
0.0
 11
4196.52512873738
 21
-3048.433773826081
 31
0.0
  0
LINE
  5
141
330
13D
100
AcDbEntity
  8
0
 62
     2
100
AcDbLine
 10
4199.02512873738
 20
-2862.83377382608
 30
0.0
 11
4201.972569854122
 21
-2873.83377382608
 31
0.0
  0
LINE
  5
142
330
13D
100
AcDbEntity
  8
0
 62
     2
100
AcDbLine
 10
4199.02512873738
 20
-2862.83377382608
 30
0.0
 11
4196.077687620638
 21
-2873.83377382608
 31
0.0
  0
LINE
  5
143
330
13D
100
AcDbEntity
  8
0
 62
     2
100
AcDbLine
 10
4199.02512873738
 20
-3048.433773826081
 30
0.0
 11
4196.077687620638
 21
-3037.433773826081
 31
0.0
  0
LINE
  5
144
330
13D
100
AcDbEntity
  8
0
 62
     2
100
AcDbLine
 10
4199.02512873738
 20
-3048.433773826081
 30
0.0
 11
4201.972569854122
 21
-3037.433773826081
 31
0.0
  0
MTEXT
  5
146
330
13D
100
AcDbEntity
  8
0
 62
     2
100
AcDbMText
 10
4196.52512873738
 20
-2987.20377382608
 30
0.0
 40
11.0
 41
0.0
 71
     7
 72
     1
  1
\C2;(\C2;185.6\C2;)
  7
CONVERTER_2
 11
0.0
 21
1.0
 31
0.0
 73
     1
 44
0.60024009603842
  0
ENDBLK
  5
148
330
13D
100
AcDbEntity
  8
0
100
AcDbBlockEnd
  0
BLOCK
  5
14A
330
149
100
AcDbEntity
  8
0
100
AcDbBlockBegin
  2
_Open30
 70
     0
 71
     0
 10
0.0
 20
0.0
 30
0.0
  3
_Open30
  1

  0
LINE
  5
14C
330
149
100
AcDbEntity
  8
0
  6
ByBlock
 62
     0
370
    -2
100
AcDbLine
 10
-1.0
 20
0.267949
 30
0.0
 11
0.0
 21
0.0
 31
0.0
  0
LINE
  5
14D
330
149
100
AcDbEntity
  8
0
  6
ByBlock
 62
     0
370
    -2
100
AcDbLine
 10
0.0
 20
0.0
 30
0.0
 11
-1.0
 21
-0.267949
 31
0.0
  0
LINE
  5
14E
330
149
100
AcDbEntity
  8
0
  6
ByBlock
 62
     0
370
    -2
100
AcDbLine
 10
0.0
 20
0.0
 30
0.0
 11
-1.0
 21
0.0
 31
0.0
  0
ENDBLK
  5
14B
330
149
100
AcDbEntity
  8
0
100
AcDbBlockEnd
  0
BLOCK
  5
15A
330
151
100
AcDbEntity
  8
0
100
AcDbBlockBegin
  2
*D14
 70
     1
 71
     0
 10
0.0
 20
0.0
 30
0.0
  3
*D14
  1

  0
LINE
  5
152
330
151
100
AcDbEntity
  8
0
  6
Continuous
 62
     2
100
AcDbLine
 10
4375.436686504197
 20
-3066.0
 30
0.0
 11
4289.528664538429
 21
-3066.0
 31
0.0
  0
LINE
  5
153
330
151
100
AcDbEntity
  8
0
  6
Continuous
 62
     2
100
AcDbLine
 10
4353.436686504197
 20
-3049.933773826079
 30
0.0
 11
4353.436686504197
 21
-3068.5
 31
0.0
  0
LINE
  5
154
330
151
100
AcDbEntity
  8
0
  6
Continuous
 62
     2
100
AcDbLine
 10
4339.436686504197
 20
-3049.933773826079
 30
0.0
 11
4339.436686504197
 21
-3068.5
 31
0.0
  0
LINE
  5
155
330
151
100
AcDbEntity
  8
0
 62
     2
100
AcDbLine
 10
4353.436686504197
 20
-3066.0
 30
0.0
 11
4364.436686504197
 21
-3063.052558883258
 31
0.0
  0
LINE
  5
156
330
151
100
AcDbEntity
  8
0
 62
     2
100
AcDbLine
 10
4353.436686504197
 20
-3066.0
 30
0.0
 11
4364.436686504197
 21
-3068.947441116743
 31
0.0
  0
LINE
  5
157
330
151
100
AcDbEntity
  8
0
 62
     2
100
AcDbLine
 10
4339.436686504197
 20
-3066.0
 30
0.0
 11
4328.436686504197
 21
-3068.947441116743
 31
0.0
  0
LINE
  5
158
330
151
100
AcDbEntity
  8
0
 62
     2
100
AcDbLine
 10
4339.436686504197
 20
-3066.0
 30
0.0
 11
4328.436686504197
 21
-3063.052558883258
 31
0.0
  0
MTEXT
  5
159
330
151
100
AcDbEntity
  8
0
 62
     2
100
AcDbMText
 10
4298.548664538483
 20
-3063.500043730194
 30
0.0
 40
11.0
 41
0.0
 71
     7
 72
     1
  1
\C2;{\Fgdt;n}\C2;14
  7
CONVERTER_2
 11
0.9999999999970621
 21
2.424068405545307E-6
 31
0.0
 73
     1
 44
0.60024009603842
  0
ENDBLK
  5
15B
330
151
100
AcDbEntity
  8
0
100
AcDbBlockEnd
  0
BLOCK
  5
165
330
15E
100
AcDbEntity
  8
0
100
AcDbBlockBegin
  2
*D25
 70
     1
 71
     0
 10
0.0
 20
0.0
 30
0.0
  3
*D25
  1

  0
LINE
  5
15F
330
15E
100
AcDbEntity
  8
0
  6
Continuous
 62
     2
100
AcDbLine
 10
4216.993816602
 20
-2989.93377382608
 30
0.0
 11
4216.993816602
 21
-2862.833773826081
 31
0.0
  0
LINE
  5
160
330
15E
100
AcDbEntity
  8
0
  6
Continuous
 62
     2
100
AcDbLine
 10
4236.086686504195
 20
-2862.833773826081
 30
0.0
 11
4214.493816602
 21
-2862.833773826081
 31
0.0
  0
LINE
  5
161
330
15E
100
AcDbEntity
  8
0
  6
Continuous
 62
     2
100
AcDbLine
 10
4231.436686504195
 20
-2989.93377382608
 30
0.0
 11
4214.493816602
 21
-2989.93377382608
 31
0.0
  0
LINE
  5
162
330
15E
100
AcDbEntity
  8
0
 62
     2
100
AcDbLine
 10
4216.993816602
 20
-2989.93377382608
 30
0.0
 11
4214.046375485258
 21
-2978.93377382608
 31
0.0
  0
LINE
  5
163
330
15E
100
AcDbEntity
  8
0
 62
     2
100
AcDbLine
 10
4216.993816602
 20
-2989.93377382608
 30
0.0
 11
4219.941257718742
 21
-2978.93377382608
 31
0.0
  0
MTEXT
  5
164
330
15E
100
AcDbEntity
  8
0
 62
     2
100
AcDbMText
 10
4214.493816602
 20
-2948.93377382608
 30
0.0
 40
11.0
 41
0.0
 71
     7
 72
     1
  1
127.1
  7
CONVERTER_2
 11
0.0
 21
1.0
 31
0.0
 73
     1
 44
0.60024009603842
  0
ENDBLK
  5
166
330
15E
100
AcDbEntity
  8
0
100
AcDbBlockEnd
  0
BLOCK
  5
168
330
167
100
AcDbEntity
  8
0
100
AcDbBlockBegin
  2
_None
 70
     0
 71
     0
 10
0.0
 20
0.0
 30
0.0
  3
_None
  1

  0
ENDBLK
  5
169
330
167
100
AcDbEntity
  8
0
100
AcDbBlockEnd
  0
BLOCK
  5
175
330
16C
100
AcDbEntity
  8
0
100
AcDbBlockBegin
  2
*D37
 70
     1
 71
     0
 10
0.0
 20
0.0
 30
0.0
  3
*D37
  1

  0
LINE
  5
16D
330
16C
100
AcDbEntity
  8
0
  6
Continuous
 62
     2
100
AcDbLine
 10
4237.93668650419
 20
-2921.71567776841
 30
0.0
 11
4274.93668650419
 21
-2921.71567776841
 31
0.0
  0
LINE
  5
16E
330
16C
100
AcDbEntity
  8
0
  6
Continuous
 62
     2
100
AcDbLine
 10
4274.93668650419
 20
-2897.333773826074
 30
0.0
 11
4274.93668650419
 21
-2924.21567776841
 31
0.0
  0
LINE
  5
16F
330
16C
100
AcDbEntity
  8
0
  6
Continuous
 62
     2
100
AcDbLine
 10
4237.93668650419
 20
-2897.333773826074
 30
0.0
 11
4237.93668650419
 21
-2924.21567776841
 31
0.0
  0
LINE
  5
170
330
16C
100
AcDbEntity
  8
0
 62
     2
100
AcDbLine
 10
4274.93668650419
 20
-2921.71567776841
 30
0.0
 11
4263.93668650419
 21
-2924.663118885153
 31
0.0
  0
LINE
  5
171
330
16C
100
AcDbEntity
  8
0
 62
     2
100
AcDbLine
 10
4274.93668650419
 20
-2921.71567776841
 30
0.0
 11
4263.93668650419
 21
-2918.768236651667
 31
0.0
  0
LINE
  5
172
330
16C
100
AcDbEntity
  8
0
 62
     2
100
AcDbLine
 10
4237.93668650419
 20
-2921.71567776841
 30
0.0
 11
4248.93668650419
 21
-2918.768236651667
 31
0.0
  0
LINE
  5
173
330
16C
100
AcDbEntity
  8
0
 62
     2
100
AcDbLine
 10
4237.93668650419
 20
-2921.71567776841
 30
0.0
 11
4248.93668650419
 21
-2924.663118885153
 31
0.0
  0
MTEXT
  5
174
330
16C
100
AcDbEntity
  8
0
 62
     2
100
AcDbMText
 10
4242.906686504243
 20
-2919.215721498604
 30
0.0
 40
11.0
 41
0.0
 71
     7
 72
     1
  1
\C2;{\Fgdt;n}\C2;37
  7
CONVERTER_2
 11
0.9999999999970621
 21
2.424068405545307E-6
 31
0.0
 73
     1
 44
0.60024009603842
  0
ENDBLK
  5
176
330
16C
100
AcDbEntity
  8
0
100
AcDbBlockEnd
  0
BLOCK
  5
182
330
179
100
AcDbEntity
  8
0
100
AcDbBlockBegin
  2
*D48
 70
     1
 71
     0
 10
0.0
 20
0.0
 30
0.0
  3
*D48
  1

  0
LINE
  5
17A
330
179
100
AcDbEntity
  8
0
  6
Continuous
 62
     2
100
AcDbLine
 10
4256.43668650419
 20
-3087.03374322393
 30
0.0
 11
4346.43668650419
 21
-3087.03374322393
 31
0.0
  0
LINE
  5
17B
330
179
100
AcDbEntity
  8
0
  6
Continuous
 62
     2
100
AcDbLine
 10
4346.43668650419
 20
-3052.933773826079
 30
0.0
 11
4346.43668650419
 21
-3089.53374322393
 31
0.0
  0
LINE
  5
17C
330
179
100
AcDbEntity
  8
0
  6
Continuous
 62
     2
100
AcDbLine
 10
4256.43668650419
 20
-3057.433773826079
 30
0.0
 11
4256.43668650419
 21
-3089.53374322393
 31
0.0
  0
LINE
  5
17D
330
179
100
AcDbEntity
  8
0
 62
     2
100
AcDbLine
 10
4346.43668650419
 20
-3087.03374322393
 30
0.0
 11
4335.43668650419
 21
-3089.981184340672
 31
0.0
  0
LINE
  5
17E
330
179
100
AcDbEntity
  8
0
 62
     2
100
AcDbLine
 10
4346.43668650419
 20
-3087.03374322393
 30
0.0
 11
4335.43668650419
 21
-3084.086302107187
 31
0.0
  0
LINE
  5
17F
330
179
100
AcDbEntity
  8
0
 62
     2
100
AcDbLine
 10
4256.43668650419
 20
-3087.03374322393
 30
0.0
 11
4267.43668650419
 21
-3084.086302107187
 31
0.0
  0
LINE
  5
180
330
179
100
AcDbEntity
  8
0
 62
     2
100
AcDbLine
 10
4256.43668650419
 20
-3087.03374322393
 30
0.0
 11
4267.43668650419
 21
-3089.981184340672
 31
0.0
  0
MTEXT
  5
181
330
179
100
AcDbEntity
  8
0
 62
     2
100
AcDbMText
 10
4292.41668650419
 20
-3084.53374322393
 30
0.0
 40
11.0
 41
0.0
 71
     7
 72
     1
  1
90
  7
CONVERTER_2
 11
0.9999999999970621
 21
2.424068405545307E-6
 31
0.0
 73
     1
 44
0.60024009603842
  0
ENDBLK
  5
183
330
179
100
AcDbEntity
  8
0
100
AcDbBlockEnd
  0
BLOCK
  5
18F
330
186
100
AcDbEntity
  8
0
100
AcDbBlockBegin
  2
*D59
 70
     1
 71
     0
 10
0.0
 20
0.0
 30
0.0
  3
*D59
  1

  0
LINE
  5
187
330
186
100
AcDbEntity
  8
0
  6
Continuous
 62
     2
100
AcDbLine
 10
4402.09805291809
 20
-2996.933773826079
 30
0.0
 11
4402.09805291809
 21
-3044.933773826081
 31
0.0
  0
LINE
  5
188
330
186
100
AcDbEntity
  8
0
  6
Continuous
 62
     2
100
AcDbLine
 10
4365.436686504194
 20
-3044.933773826081
 30
0.0
 11
4404.59805291809
 21
-3044.933773826081
 31
0.0
  0
LINE
  5
189
330
186
100
AcDbEntity
  8
0
  6
Continuous
 62
     2
100
AcDbLine
 10
4365.436686504194
 20
-2996.933773826079
 30
0.0
 11
4404.59805291809
 21
-2996.933773826079
 31
0.0
  0
LINE
  5
18A
330
186
100
AcDbEntity
  8
0
 62
     2
100
AcDbLine
 10
4402.09805291809
 20
-3044.933773826081
 30
0.0
 11
4399.150611801348
 21
-3033.933773826081
 31
0.0
  0
LINE
  5
18B
330
186
100
AcDbEntity
  8
0
 62
     2
100
AcDbLine
 10
4402.09805291809
 20
-3044.933773826081
 30
0.0
 11
4405.045494034832
 21
-3033.933773826081
 31
0.0
  0
LINE
  5
18C
330
186
100
AcDbEntity
  8
0
 62
     2
100
AcDbLine
 10
4402.09805291809
 20
-2996.933773826079
 30
0.0
 11
4405.045494034832
 21
-3007.933773826079
 31
0.0
  0
LINE
  5
18D
330
186
100
AcDbEntity
  8
0
 62
     2
100
AcDbLine
 10
4402.09805291809
 20
-2996.933773826079
 30
0.0
 11
4399.150611801348
 21
-3007.933773826079
 31
0.0
  0
MTEXT
  5
18E
330
186
100
AcDbEntity
  8
0
 62
     2
100
AcDbMText
 10
4399.59805291809
 20
-3029.95377382608
 30
0.0
 40
11.0
 41
0.0
 71
     7
 72
     1
  1
48
  7
CONVERTER_2
 11
0.0
 21
1.0
 31
0.0
 73
     1
 44
0.60024009603842
  0
ENDBLK
  5
190
330
186
100
AcDbEntity
  8
0
100
AcDbBlockEnd
  0
BLOCK
  5
19C
330
193
100
AcDbEntity
  8
0
100
AcDbBlockBegin
  2
*D610
 70
     1
 71
     0
 10
0.0
 20
0.0
 30
0.0
  3
*D610
  1

  0
LINE
  5
194
330
193
100
AcDbEntity
  8
0
  6
Continuous
 62
     2
100
AcDbLine
 10
4231.636686504191
 20
-2974.69589800047
 30
0.0
 11
4281.23668650419
 21
-2974.69589800047
 31
0.0
  0
LINE
  5
195
330
193
100
AcDbEntity
  8
0
  6
Continuous
 62
     2
100
AcDbLine
 10
4281.23668650419
 20
-2957.233773826078
 30
0.0
 11
4281.23668650419
 21
-2977.19589800047
 31
0.0
  0
LINE
  5
196
330
193
100
AcDbEntity
  8
0
  6
Continuous
 62
     2
100
AcDbLine
 10
4231.636686504191
 20
-2957.233773826078
 30
0.0
 11
4231.636686504191
 21
-2977.19589800047
 31
0.0
  0
LINE
  5
197
330
193
100
AcDbEntity
  8
0
 62
     2
100
AcDbLine
 10
4281.23668650419
 20
-2974.69589800047
 30
0.0
 11
4270.23668650419
 21
-2977.643339117213
 31
0.0
  0
LINE
  5
198
330
193
100
AcDbEntity
  8
0
 62
     2
100
AcDbLine
 10
4281.23668650419
 20
-2974.69589800047
 30
0.0
 11
4270.23668650419
 21
-2971.748456883728
 31
0.0
  0
LINE
  5
199
330
193
100
AcDbEntity
  8
0
 62
     2
100
AcDbLine
 10
4231.636686504191
 20
-2974.69589800047
 30
0.0
 11
4242.636686504191
 21
-2971.748456883728
 31
0.0
  0
LINE
  5
19A
330
193
100
AcDbEntity
  8
0
 62
     2
100
AcDbLine
 10
4231.636686504191
 20
-2974.69589800047
 30
0.0
 11
4242.636686504191
 21
-2977.643339117213
 31
0.0
  0
MTEXT
  5
19B
330
193
100
AcDbEntity
  8
0
 62
     2
100
AcDbMText
 10
4233.886686504243
 20
-2972.195941730664
 30
0.0
 40
11.0
 41
0.0
 71
     7
 72
     1
  1
\C2;{\Fgdt;n}\C2;49.6
  7
CONVERTER_2
 11
0.9999999999970621
 21
2.424068405545307E-6
 31
0.0
 73
     1
 44
0.60024009603842
  0
ENDBLK
  5
19D
330
193
100
AcDbEntity
  8
0
100
AcDbBlockEnd
  0
BLOCK
  5
1A8
330
1A0
100
AcDbEntity
  8
0
100
AcDbBlockBegin
  2
*D711
 70
     1
 71
     0
 10
0.0
 20
0.0
 30
0.0
  3
*D711
  1

  0
LINE
  5
1A1
330
1A0
100
AcDbEntity
  8
0
  6
Continuous
 62
     2
100
AcDbLine
 10
4380.63668650419
 20
-2839.16364263427
 30
0.0
 11
4402.63668650419
 21
-2839.16364263427
 31
0.0
  0
LINE
  5
1A2
330
1A0
100
AcDbEntity
  8
0
  6
Continuous
 62
     2
100
AcDbLine
 10
4361.436686504189
 20
-2839.16364263427
 30
0.0
 11
4339.436686504189
 21
-2839.16364263427
 31
0.0
  0
LINE
  5
1A3
330
1A0
100
AcDbEntity
  8
0
  6
Continuous
 62
     2
100
AcDbLine
 10
4361.436686504189
 20
-2992.933773826077
 30
0.0
 11
4361.436686504189
 21
-2836.66364263427
 31
0.0
  0
LINE
  5
1A4
330
1A0
100
AcDbEntity
  8
0
  6
Continuous
 62
     2
100
AcDbLine
 10
4380.63668650419
 20
-3015.933773826077
 30
0.0
 11
4380.63668650419
 21
-2836.66364263427
 31
0.0
  0
LINE
  5
1A5
330
1A0
100
AcDbEntity
  8
0
 62
     2
100
AcDbLine
 10
4361.436686504189
 20
-2839.16364263427
 30
0.0
 11
4350.436686504189
 21
-2842.111083751013
 31
0.0
  0
LINE
  5
1A6
330
1A0
100
AcDbEntity
  8
0
 62
     2
100
AcDbLine
 10
4361.436686504189
 20
-2839.16364263427
 30
0.0
 11
4350.436686504189
 21
-2836.216201517528
 31
0.0
  0
MTEXT
  5
1A7
330
1A0
100
AcDbEntity
  8
0
 62
     2
100
AcDbMText
 10
4343.976686504217
 20
-2836.663664499367
 30
0.0
 40
11.0
 41
0.0
 71
     7
 72
     1
  1
\C2;(\C2;19.2\C2;)
  7
CONVERTER_2
 11
0.9999999999970621
 21
2.424068405545307E-6
 31
0.0
 73
     1
 44
0.60024009603842
  0
ENDBLK
  5
1A9
330
1A0
100
AcDbEntity
  8
0
100
AcDbBlockEnd
  0
BLOCK
  5
1B3
330
1AC
100
AcDbEntity
  8
0
100
AcDbBlockBegin
  2
*D812
 70
     1
 71
     0
 10
0.0
 20
0.0
 30
0.0
  3
*D812
  1

  0
LINE
  5
1AD
330
1AC
100
AcDbEntity
  8
0
  6
Continuous
 62
     2
100
AcDbLine
 10
4256.43668650419
 20
-2839.18913925796
 30
0.0
 11
4361.43668650419
 21
-2839.18913925796
 31
0.0
  0
LINE
  5
1AE
330
1AC
100
AcDbEntity
  8
0
  6
Continuous
 62
     2
100
AcDbLine
 10
4361.43668650419
 20
-2992.933773826076
 30
0.0
 11
4361.43668650419
 21
-2836.68913925796
 31
0.0
  0
LINE
  5
1AF
330
1AC
100
AcDbEntity
  8
0
  6
Continuous
 62
     2
100
AcDbLine
 10
4256.43668650419
 20
-2852.833773826077
 30
0.0
 11
4256.43668650419
 21
-2836.68913925796
 31
0.0
  0
LINE
  5
1B0
330
1AC
100
AcDbEntity
  8
0
 62
     2
100
AcDbLine
 10
4361.43668650419
 20
-2839.18913925796
 30
0.0
 11
4350.43668650419
 21
-2842.136580374703
 31
0.0
  0
LINE
  5
1B1
330
1AC
100
AcDbEntity
  8
0
 62
     2
100
AcDbLine
 10
4361.43668650419
 20
-2839.18913925796
 30
0.0
 11
4350.43668650419
 21
-2836.241698141218
 31
0.0
  0
MTEXT
  5
1B2
330
1AC
100
AcDbEntity
  8
0
 62
     2
100
AcDbMText
 10
4295.406686504191
 20
-2836.68913925796
 30
0.0
 40
11.0
 41
0.0
 71
     7
 72
     1
  1
105
  7
CONVERTER_2
 11
0.9999999999970621
 21
2.424068405545307E-6
 31
0.0
 73
     1
 44
0.60024009603842
  0
ENDBLK
  5
1B4
330
1AC
100
AcDbEntity
  8
0
100
AcDbBlockEnd
  0
BLOCK
  5
1BD
330
1B7
100
AcDbEntity
  8
0
100
AcDbBlockBegin
  2
*D913
 70
     1
 71
     0
 10
0.0
 20
0.0
 30
0.0
  3
*D913
  1

  0
LINE
  5
1B8
330
1B7
100
AcDbEntity
  8
0
  6
Continuous
 62
     2
100
AcDbLine
 10
4216.993816602
 20
-2989.93377382608
 30
0.0
 11
4216.993816602
 21
-2967.93377382608
 31
0.0
  0
LINE
  5
1B9
330
1B7
100
AcDbEntity
  8
0
  6
Continuous
 62
     2
100
AcDbLine
 10
4216.993816602
 20
-3020.93377382608
 30
0.0
 11
4216.993816602
 21
-3042.93377382608
 31
0.0
  0
LINE
  5
1BA
330
1B7
100
AcDbEntity
  8
0
  6
Continuous
 62
     2
100
AcDbLine
 10
4232.536686504195
 20
-3020.93377382608
 30
0.0
 11
4214.493816602
 21
-3020.93377382608
 31
0.0
  0
LINE
  5
1BB
330
1B7
100
AcDbEntity
  8
0
  6
Continuous
 62
     2
100
AcDbLine
 10
4231.436686504195
 20
-2989.93377382608
 30
0.0
 11
4214.493816602
 21
-2989.93377382608
 31
0.0
  0
MTEXT
  5
1BC
330
1B7
100
AcDbEntity
  8
0
 62
     2
100
AcDbMText
 10
4214.493816602
 20
-3014.45377382608
 30
0.0
 40
11.0
 41
0.0
 71
     7
 72
     1
  1
31
  7
CONVERTER_2
 11
0.0
 21
1.0
 31
0.0
 73
     1
 44
0.60024009603842
  0
ENDBLK
  5
1BE
330
1B7
100
AcDbEntity
  8
0
100
AcDbBlockEnd
  0
BLOCK
  5
1C9
330
1C1
100
AcDbEntity
  8
0
100
AcDbBlockBegin
  2
*D1014
 70
     1
 71
     0
 10
0.0
 20
0.0
 30
0.0
  3
*D1014
  1

  0
LINE
  5
1C2
330
1C1
100
AcDbEntity
  8
0
  6
Continuous
 62
     2
100
AcDbLine
 10
4216.993816602
 20
-3020.933773826079
 30
0.0
 11
4216.993816602
 21
-2998.933773826079
 31
0.0
  0
LINE
  5
1C3
330
1C1
100
AcDbEntity
  8
0
  6
Continuous
 62
     2
100
AcDbLine
 10
4216.993816602
 20
-3048.433773826081
 30
0.0
 11
4216.993816602
 21
-3070.433773826081
 31
0.0
  0
LINE
  5
1C4
330
1C1
100
AcDbEntity
  8
0
  6
Continuous
 62
     2
100
AcDbLine
 10
4242.136686504196
 20
-3048.433773826081
 30
0.0
 11
4214.493816602
 21
-3048.433773826081
 31
0.0
  0
LINE
  5
1C5
330
1C1
100
AcDbEntity
  8
0
  6
Continuous
 62
     2
100
AcDbLine
 10
4232.536686504195
 20
-3020.933773826079
 30
0.0
 11
4214.493816602
 21
-3020.933773826079
 31
0.0
  0
LINE
  5
1C6
330
1C1
100
AcDbEntity
  8
0
 62
     2
100
AcDbLine
 10
4216.993816602
 20
-3020.933773826079
 30
0.0
 11
4214.046375485258
 21
-3009.933773826079
 31
0.0
  0
LINE
  5
1C7
330
1C1
100
AcDbEntity
  8
0
 62
     2
100
AcDbLine
 10
4216.993816602
 20
-3020.933773826079
 30
0.0
 11
4219.941257718742
 21
-3009.933773826079
 31
0.0
  0
MTEXT
  5
1C8
330
1C1
100
AcDbEntity
  8
0
 62
     2
100
AcDbMText
 10
4214.493816602
 20
-3052.72377382608
 30
0.0
 40
11.0
 41
0.0
 71
     7
 72
     1
  1
27.5
  7
CONVERTER_2
 11
0.0
 21
1.0
 31
0.0
 73
     1
 44
0.60024009603842
  0
ENDBLK
  5
1CA
330
1C1
100
AcDbEntity
  8
0
100
AcDbBlockEnd
  0
ENDSEC
  0
SECTION
  2
ENTITIES
  0
INSERT
  5
35
330
1F
100
AcDbEntity
  8
0
100
AcDbBlockReference
  2
TOP__1
 10
0.0
 20
0.0
 30
0.0
  0
ENDSEC
  0
SECTION
  2
OBJECTS
  0
DICTIONARY
  5
C
330
0
100
AcDbDictionary
281
     1
  3
ACAD_GROUP
350
D
  3
ACAD_LAYOUT
350
1A
  3
ACAD_MLINESTYLE
350
17
  3
ACAD_PLOTSETTINGS
350
19
  3
ACAD_PLOTSTYLENAME
350
E
  0
DICTIONARY
  5
D
102
{ACAD_REACTORS
330
C
102
}
330
C
100
AcDbDictionary
281
     1
  0
DICTIONARY
  5
1A
102
{ACAD_REACTORS
330
C
102
}
330
C
100
AcDbDictionary
281
     1
  3
Layout1
350
1E
  3
Layout2
350
26
  3
Model
350
22
  0
DICTIONARY
  5
17
102
{ACAD_REACTORS
330
C
102
}
330
C
100
AcDbDictionary
281
     1
  3
Standard
350
18
  0
DICTIONARY
  5
19
102
{ACAD_REACTORS
330
C
102
}
330
C
100
AcDbDictionary
281
     1
  0
ACDBDICTIONARYWDFLT
  5
E
102
{ACAD_REACTORS
330
C
102
}
330
C
100
AcDbDictionary
281
     1
  3
Normal
350
F
100
AcDbDictionaryWithDefault
340
F
  0
LAYOUT
  5
1E
102
{ACAD_REACTORS
330
1A
102
}
330
1A
100
AcDbPlotSettings
  1

  2

  4

  6

 40
0.0
 41
0.0
 42
0.0
 43
0.0
 44
0.0
 45
0.0
 46
0.0
 47
0.0
 48
0.0
 49
0.0
140
0.0
141
0.0
142
1.0
143
1.0
 70
   688
 72
     0
 73
     0
 74
     5
  7

 75
    16
147
1.0
148
0.0
149
0.0
100
AcDbLayout
  1
Layout1
 70
     1
 71
     1
 10
0.0
 20
0.0
 11
0.0
 21
0.0
 12
0.0
 22
0.0
 32
0.0
 14
0.0
 24
0.0
 34
0.0
 15
0.0
 25
0.0
 35
0.0
146
0.0
 13
0.0
 23
0.0
 33
0.0
 16
1.0
 26
0.0
 36
0.0
 17
0.0
 27
1.0
 37
0.0
 76
     0
330
1B
  0
LAYOUT
  5
26
102
{ACAD_REACTORS
330
1A
102
}
330
1A
100
AcDbPlotSettings
  1

  2

  4

  6

 40
0.0
 41
0.0
 42
0.0
 43
0.0
 44
0.0
 45
0.0
 46
0.0
 47
0.0
 48
0.0
 49
0.0
140
0.0
141
0.0
142
1.0
143
1.0
 70
   688
 72
     0
 73
     0
 74
     5
  7

 75
    16
147
1.0
148
0.0
149
0.0
100
AcDbLayout
  1
Layout2
 70
     1
 71
     2
 10
0.0
 20
0.0
 11
0.0
 21
0.0
 12
0.0
 22
0.0
 32
0.0
 14
0.0
 24
0.0
 34
0.0
 15
0.0
 25
0.0
 35
0.0
146
0.0
 13
0.0
 23
0.0
 33
0.0
 16
1.0
 26
0.0
 36
0.0
 17
0.0
 27
1.0
 37
0.0
 76
     0
330
23
  0
LAYOUT
  5
22
102
{ACAD_REACTORS
330
1A
102
}
330
1A
100
AcDbPlotSettings
  1

  2

  4

  6

 40
0.0
 41
0.0
 42
0.0
 43
0.0
 44
0.0
 45
0.0
 46
0.0
 47
0.0
 48
0.0
 49
0.0
140
0.0
141
0.0
142
1.0
143
1.0
 70
  1712
 72
     0
 73
     0
 74
     0
  7

 75
     0
147
1.0
148
0.0
149
0.0
100
AcDbLayout
  1
Model
 70
     1
 71
     0
 10
0.0
 20
0.0
 11
0.0
 21
0.0
 12
0.0
 22
0.0
 32
0.0
 14
4185.52512873738
 24
-3089.981184340672
 34
0.0
 15
4405.045494034832
 25
-2785.35895701913
 35
0.0
146
0.0
 13
0.0
 23
0.0
 33
0.0
 16
1.0
 26
0.0
 36
0.0
 17
0.0
 27
1.0
 37
0.0
 76
     0
330
1F
  0
MLINESTYLE
  5
18
102
{ACAD_REACTORS
330
17
102
}
330
17
100
AcDbMlineStyle
  2
Standard
 70
     0
  3

 62
   256
 51
90.0
 52
90.0
 71
     2
 49
0.5
 62
   256
  6
BYLAYER
 49
-0.5
 62
   256
  6
BYLAYER
  0
ACDBPLACEHOLDER
  5
F
102
{ACAD_REACTORS
330
E
102
}
330
E
  0
ENDSEC
  0
EOF
